<svg width="88" height="22" viewBox="0 0 88 22" fill="none" xmlns="http://www.w3.org/2000/svg">
<path d="M32.8974 4.91211H28.0316C27.8705 4.91201 27.7146 4.97016 27.5922 5.07609C27.4697 5.18201 27.3886 5.32875 27.3635 5.48987L25.3955 18.1234C25.3864 18.1821 25.39 18.242 25.4061 18.299C25.4221 18.3561 25.4501 18.409 25.4883 18.4541C25.5264 18.4991 25.5737 18.5353 25.627 18.56C25.6802 18.5848 25.7382 18.5975 25.7968 18.5975H28.1198C28.281 18.5975 28.4369 18.5393 28.5594 18.4332C28.6819 18.3271 28.7629 18.1802 28.7879 18.019L29.3186 14.6115C29.3436 14.4504 29.4245 14.3036 29.5469 14.1975C29.6692 14.0915 29.825 14.0331 29.986 14.033H31.5264C34.7317 14.033 36.5815 12.4626 37.0646 9.35046C37.2824 7.98892 37.0739 6.91913 36.4442 6.16992C35.7527 5.34723 34.526 4.91211 32.8974 4.91211ZM33.4588 9.52624C33.1927 11.2941 31.8587 11.2941 30.5687 11.2941H29.8345L30.3496 7.99252C30.3647 7.89593 30.4133 7.80796 30.4867 7.74443C30.5602 7.68091 30.6536 7.64601 30.7502 7.64601H31.0867C31.9654 7.64601 32.7943 7.64601 33.2226 8.15317C33.478 8.45573 33.5563 8.90526 33.4588 9.52624ZM47.4424 9.46933H45.1123C45.0157 9.46933 44.9223 9.50423 44.8489 9.56775C44.7755 9.63128 44.7268 9.71925 44.7117 9.81584L44.6086 10.4757L44.4456 10.2365C43.9412 9.49526 42.8163 9.24745 41.6936 9.24745C39.1187 9.24745 36.9195 11.2221 36.4912 13.992C36.2685 15.3737 36.5851 16.6949 37.3592 17.6163C38.0693 18.4635 39.0853 18.8165 40.2941 18.8165C42.3688 18.8165 43.5193 17.4657 43.5193 17.4657L43.4154 18.1213C43.4061 18.1799 43.4096 18.2398 43.4254 18.297C43.4412 18.3541 43.4691 18.4071 43.5071 18.4523C43.5451 18.4975 43.5923 18.5338 43.6455 18.5588C43.6987 18.5837 43.7566 18.5966 43.8153 18.5967H45.9142C46.0753 18.5968 46.2313 18.5386 46.3538 18.4325C46.4763 18.3264 46.5573 18.1795 46.5822 18.0183L47.8416 9.94335C47.8509 9.88487 47.8475 9.82505 47.8317 9.76802C47.8159 9.71099 47.788 9.65811 47.7501 9.61304C47.7121 9.56797 47.665 9.53177 47.6119 9.50696C47.5587 9.48215 47.5009 9.46931 47.4424 9.46933ZM44.1945 14.0611C43.9697 15.409 42.9131 16.3138 41.5655 16.3138C40.8889 16.3138 40.3482 16.0941 40.001 15.6777C39.6566 15.2642 39.5257 14.6756 39.6353 14.0201C39.8451 12.6837 40.9195 11.7494 42.2464 11.7494C42.9081 11.7494 43.446 11.972 43.8003 12.392C44.1554 12.8163 44.2962 13.4084 44.1945 14.0611ZM59.8523 9.46933H57.5107C57.4003 9.46951 57.2916 9.49696 57.194 9.54931C57.0964 9.60166 57.013 9.67732 56.9508 9.76973L53.7213 14.5863L52.3524 9.95776C52.3104 9.81659 52.2246 9.69287 52.1078 9.6049C51.9909 9.51694 51.8492 9.4694 51.7036 9.46933H49.4026C49.338 9.46915 49.2743 9.4846 49.2168 9.51439C49.1593 9.54417 49.1097 9.58743 49.072 9.64057C49.0344 9.69371 49.0098 9.75518 49.0003 9.81987C48.9909 9.88457 48.9968 9.95061 49.0177 10.0125L51.5968 17.6761L49.1721 21.1419C49.129 21.2033 49.1034 21.2756 49.0982 21.3508C49.093 21.426 49.1083 21.5012 49.1424 21.5681C49.1766 21.6351 49.2283 21.6912 49.2919 21.7304C49.3555 21.7696 49.4285 21.7903 49.5029 21.7902H51.8416C51.9508 21.7904 52.0584 21.7637 52.1552 21.7125C52.2519 21.6614 52.335 21.5872 52.3973 21.4963L60.1852 10.1141C60.2274 10.0525 60.2522 9.9804 60.2568 9.90558C60.2614 9.83077 60.2458 9.7561 60.2114 9.68968C60.1771 9.62325 60.1255 9.5676 60.0622 9.52876C59.9989 9.48992 59.9263 9.46936 59.8523 9.46933Z" fill="#253B80"/>
<path d="M67.6238 4.91283H62.7498C62.5886 4.9129 62.4327 4.97105 62.3102 5.07682C62.1877 5.18258 62.1065 5.32903 62.0814 5.4898L60.1105 18.1061C60.1013 18.1646 60.1048 18.2243 60.1207 18.2813C60.1366 18.3382 60.1646 18.391 60.2026 18.436C60.2407 18.481 60.288 18.5171 60.3412 18.5419C60.3944 18.5667 60.4523 18.5795 60.5109 18.5795H63.012C63.1249 18.5793 63.234 18.5385 63.3196 18.4644C63.4053 18.3903 63.462 18.2877 63.4795 18.1752L64.0389 14.599C64.0638 14.4381 64.1449 14.2915 64.2674 14.1856C64.39 14.0797 64.5459 14.0214 64.7073 14.0213H66.2493C69.4601 14.0213 71.3121 12.453 71.7966 9.34513C72.0154 7.98544 71.8052 6.91711 71.1746 6.16892C70.4826 5.34735 69.2549 4.91283 67.6238 4.91283ZM68.186 9.52067C67.9202 11.2861 66.5842 11.2861 65.2916 11.2861H64.5569L65.0735 7.98904C65.0883 7.89257 65.1369 7.80465 65.2103 7.74118C65.2838 7.67771 65.3773 7.64288 65.474 7.643H65.811C66.6903 7.643 67.5212 7.643 67.9502 8.14947C68.206 8.45162 68.2836 8.90053 68.186 9.52067ZM82.1902 9.46383H79.8579C79.7612 9.46356 79.6676 9.49834 79.5941 9.56184C79.5206 9.62534 79.4721 9.71335 79.4575 9.80987L79.3542 10.4689L79.1903 10.23C78.685 9.48973 77.5592 9.24225 76.4348 9.24225C73.856 9.24225 71.6541 11.2142 71.2251 13.9803C71.0028 15.3601 71.3185 16.6795 72.0938 17.5997C72.8063 18.4457 73.8225 18.7982 75.0331 18.7982C77.111 18.7982 78.2632 17.4493 78.2632 17.4493L78.1592 18.104C78.1499 18.1626 78.1533 18.2226 78.1693 18.2798C78.1852 18.337 78.2132 18.39 78.2515 18.4351C78.2897 18.4803 78.3372 18.5165 78.3906 18.5413C78.4441 18.5661 78.5022 18.5789 78.5611 18.5788H80.6624C80.8237 18.5787 80.9797 18.5204 81.1023 18.4145C81.2248 18.3086 81.3059 18.162 81.3308 18.0011L82.5928 9.93721C82.6017 9.87862 82.598 9.81878 82.5819 9.76178C82.5658 9.70478 82.5376 9.65198 82.4994 9.60701C82.4611 9.56204 82.4137 9.52595 82.3603 9.50124C82.3069 9.47653 82.2489 9.46376 82.1902 9.46383ZM78.9373 14.0494C78.7136 15.3954 77.654 16.299 76.3044 16.299C75.6281 16.299 75.0851 16.0796 74.7374 15.6637C74.3925 15.2508 74.2628 14.663 74.3711 14.0084C74.5828 12.6739 75.6573 11.7408 76.9863 11.7408C77.649 11.7408 78.1877 11.9631 78.5425 12.3825C78.8995 12.8062 79.0406 13.3976 78.9373 14.0494ZM84.9414 5.25887L82.9412 18.1061C82.9321 18.1646 82.9356 18.2243 82.9515 18.2813C82.9674 18.3382 82.9953 18.391 83.0334 18.436C83.0715 18.481 83.1187 18.5171 83.172 18.5419C83.2252 18.5667 83.2831 18.5795 83.3417 18.5795H85.3526C85.6868 18.5795 85.9704 18.3349 86.0217 18.0018L87.9941 5.3862C88.0032 5.32772 87.9997 5.26794 87.9838 5.21095C87.9679 5.15397 87.94 5.10114 87.9019 5.05609C87.8639 5.01104 87.8166 4.97485 87.7634 4.94999C87.7102 4.92514 87.6523 4.91221 87.5936 4.91211H85.3419C85.2452 4.91245 85.1518 4.94754 85.0784 5.01108C85.0051 5.07462 84.9565 5.16246 84.9414 5.25887Z" fill="#179BD7"/>
<path d="M5.16669 21.0233L5.53797 18.6314L4.71093 18.612H0.761719L3.50622 0.962496C3.51439 0.908569 3.54139 0.859415 3.58231 0.823995C3.62323 0.788575 3.67533 0.769247 3.72913 0.769534H10.3881C12.5987 0.769534 14.1243 1.2361 14.9208 2.15699C15.2942 2.58899 15.532 3.04043 15.647 3.53724C15.7677 4.05852 15.7699 4.68133 15.652 5.44093L15.6435 5.49637V5.9831L16.0169 6.19766C16.302 6.34414 16.5582 6.54228 16.7729 6.7823C17.0924 7.15167 17.299 7.62111 17.3863 8.17767C17.4765 8.75008 17.4467 9.4312 17.299 10.2023C17.1286 11.0894 16.8532 11.8619 16.4812 12.4941C16.153 13.0604 15.7117 13.5509 15.1856 13.9341C14.6915 14.2898 14.1044 14.5598 13.4406 14.7326C12.7975 14.9025 12.0641 14.9882 11.2598 14.9882H10.7416C10.371 14.9882 10.0111 15.1236 9.72855 15.3662C9.44641 15.6114 9.25924 15.9503 9.20038 16.3224L9.16133 16.5377L8.50538 20.7533L8.47556 20.9081C8.46775 20.9571 8.45427 20.9815 8.43439 20.9981C8.41513 21.0141 8.39111 21.0229 8.36624 21.0233H5.16669Z" fill="#253B80"/>
<path d="M16.3868 5.52148C16.3669 5.65082 16.3441 5.78304 16.3185 5.91888C15.4383 10.5077 12.4271 12.093 8.5813 12.093H6.62316C6.15284 12.093 5.75652 12.4398 5.68323 12.9109L4.68068 19.3675L4.39678 21.1977C4.38547 21.2703 4.38979 21.3445 4.40943 21.4153C4.42908 21.486 4.46359 21.5516 4.51059 21.6075C4.55759 21.6634 4.61596 21.7083 4.68168 21.7391C4.7474 21.7699 4.81891 21.7858 4.89129 21.7859H8.36428C8.77555 21.7859 9.12491 21.4824 9.18966 21.0706L9.22381 20.8914L9.87771 16.6775L9.91969 16.4463C9.98373 16.033 10.3338 15.7295 10.7451 15.7295H11.2645C14.6293 15.7295 17.2634 14.3423 18.0333 10.3278C18.3549 8.65081 18.1884 7.25052 17.3374 6.2657C17.0677 5.96105 16.7456 5.70886 16.3868 5.52148Z" fill="#179BD7"/>
<path d="M15.4478 5.15504C15.1672 5.07198 14.8818 5.00716 14.5932 4.96095C14.0229 4.87128 13.4465 4.82826 12.8696 4.83229H7.64625C7.44747 4.83213 7.25519 4.90474 7.10417 5.03699C6.95315 5.16925 6.85335 5.35241 6.82282 5.55338L5.71166 12.7541L5.67969 12.9642C5.7143 12.735 5.82796 12.526 6.00011 12.3751C6.17225 12.2242 6.39151 12.1412 6.61821 12.1414H8.5734C12.4135 12.1414 15.4201 10.5458 16.299 5.92992C16.3253 5.79326 16.3473 5.66024 16.3672 5.53012C16.1353 5.4057 15.8936 5.30138 15.6446 5.21828C15.5794 5.19612 15.5138 5.17504 15.4478 5.15504Z" fill="#222D65"/>
<path d="M6.82069 5.56975C6.85092 5.36968 6.95052 5.18731 7.1014 5.05575C7.25228 4.9242 7.44444 4.8522 7.64296 4.85283H12.8589C13.4769 4.85283 14.0536 4.89406 14.5801 4.98088C14.9363 5.03796 15.2876 5.12335 15.6308 5.23625C15.8897 5.32378 16.1302 5.42724 16.3523 5.5466C16.6134 3.84869 16.3502 2.69264 15.4499 1.64582C14.4573 0.493385 12.6659 0 10.3737 0H3.71893C3.25068 0 2.85126 0.347251 2.77889 0.819656L0.00703055 18.7356C-0.00588032 18.8188 -0.000968176 18.9038 0.0214291 18.9849C0.0438264 19.066 0.0831772 19.1411 0.136775 19.2052C0.190372 19.2693 0.256945 19.3207 0.331912 19.3561C0.40688 19.3914 0.488464 19.4097 0.571052 19.4099H4.67954L5.71109 12.7361L6.82069 5.56975Z" fill="#253B80"/>
</svg>
