<svg width="106" height="23" viewBox="0 0 106 23" fill="none" xmlns="http://www.w3.org/2000/svg">
<path d="M6.80128 5.80025L5.92188 8.99584L10.9554 5.78206L7.66338 17.9084L11.0068 17.9112L15.8701 0" fill="#3395FF"/>
<path d="M1.38472 12.8147L0 17.9126H6.85268L9.65674 7.54197L1.38472 12.8147ZM25.1885 8.32639C25.021 8.94104 24.6982 9.39251 24.2169 9.68081C23.7368 9.96857 23.0628 10.113 22.1929 10.113H19.4291L20.3995 6.5409H23.1633C24.0321 6.5409 24.629 6.68422 24.9529 6.97638C25.2767 7.26855 25.3549 7.71506 25.1885 8.33246M28.0501 8.25528C28.4018 6.96536 28.2566 5.97311 27.6134 5.27854C26.9713 4.58947 25.8445 4.24219 24.2365 4.24219H18.0683L14.3553 17.9187H17.352L18.8484 12.4062H20.8138C21.2549 12.4062 21.6022 12.4779 21.8557 12.6157C22.1097 12.759 22.2588 13.0071 22.3046 13.3654L22.8395 17.9187H26.05L25.5296 13.6741C25.4235 12.7259 24.9841 12.1692 24.2119 12.0038C25.1963 11.7226 26.021 11.2541 26.6854 10.6036C27.3452 9.95789 27.8166 9.14859 28.0501 8.26079M35.3343 13.0236C35.0831 13.9497 34.6978 14.6498 34.1769 15.1404C33.6554 15.631 33.0322 15.8735 32.3053 15.8735C31.5649 15.8735 31.0629 15.6365 30.7977 15.1569C30.5319 14.6773 30.523 13.9828 30.7698 13.0732C31.0166 12.1636 31.4102 11.4525 31.9518 10.9399C32.4934 10.4272 33.1266 10.1709 33.8536 10.1709C34.5794 10.1709 35.0764 10.4189 35.3276 10.9112C35.5845 11.4057 35.5901 12.1129 35.3388 13.0335L35.3343 13.0236ZM36.6476 8.18362L36.2724 9.56726C36.1105 9.07113 35.7961 8.67423 35.3316 8.37656C34.8659 8.0844 34.2897 7.93556 33.6023 7.93556C32.7592 7.93556 31.9496 8.15054 31.1735 8.58052C30.3974 9.01049 29.7162 9.61687 29.1355 10.3996C28.5548 11.1824 28.1305 12.0699 27.8569 13.0677C27.5888 14.071 27.533 14.9474 27.6949 15.7082C27.8624 16.4744 28.2142 17.0587 28.7558 17.4667C29.303 17.8801 30.0009 18.0841 30.8552 18.0841C31.534 18.0875 32.2052 17.9425 32.8206 17.6596C33.4291 17.3887 33.9702 16.9898 34.4064 16.4909L34.0155 17.933H36.9134L39.5594 8.18858H36.656L36.6476 8.18362ZM49.9727 8.18362H41.5455L40.9564 10.3555H45.8599L39.3774 15.8846L38.8235 17.9242H47.5227L48.1117 15.7523H42.8576L49.4395 10.1406M57.3905 13.0071C57.1297 13.9662 56.7428 14.6873 56.2319 15.1569C55.721 15.631 55.1023 15.868 54.3759 15.868C52.8572 15.868 52.358 14.9144 52.8762 13.0071C53.133 12.0589 53.5216 11.3461 54.0409 10.866C54.5602 10.3842 55.1894 10.1439 55.9292 10.1439C56.6551 10.1439 57.1453 10.3826 57.3977 10.8632C57.6501 11.3428 57.6479 12.0578 57.3905 13.0059M59.0867 8.5502C58.4195 8.14007 57.568 7.93501 56.5295 7.93501C55.4781 7.93501 54.5049 8.13897 53.6093 8.54689C52.7174 8.95227 51.9336 9.55739 51.32 10.3142C50.6891 11.0804 50.2351 11.979 49.9565 13.0043C49.6829 14.0258 49.6494 14.9226 49.8616 15.6905C50.0738 16.4568 50.5205 17.0466 51.1905 17.4545C51.8661 17.8658 52.726 18.0703 53.7813 18.0703C54.8198 18.0703 55.7857 17.8641 56.6735 17.454C57.5613 17.0416 58.3207 16.4562 58.9516 15.6845C59.5826 14.916 60.0348 14.0197 60.314 12.9944C60.5932 11.969 60.6267 11.0738 60.4145 10.3043C60.2023 9.53804 59.7612 8.9482 59.0968 8.53752M69.4319 10.7866L70.1745 8.13511C69.9233 8.00832 69.5938 7.94217 69.1807 7.94217C68.5162 7.94217 67.8797 8.10424 67.2655 8.43278C66.7373 8.71172 66.2884 9.10531 65.9087 9.59813L66.294 8.17039L65.4525 8.1737H63.3866L60.7233 17.9143H63.6619L65.0438 12.8224C65.2448 12.0821 65.6066 11.4994 66.1287 11.0859C66.648 10.6709 67.2957 10.463 68.0774 10.463C68.5575 10.463 69.0042 10.5716 69.4286 10.7883M77.6085 13.0539C77.3572 13.9635 76.9775 14.658 76.4583 15.1376C75.939 15.6194 75.3136 15.8598 74.5878 15.8598C73.8619 15.8598 73.365 15.6172 73.1025 15.1321C72.8345 14.6443 72.8289 13.9414 73.0802 13.0175C73.3315 12.0942 73.7167 11.3858 74.2472 10.8952C74.7776 10.4007 75.403 10.1538 76.1288 10.1538C76.8435 10.1538 77.3237 10.4074 77.5805 10.92C77.8374 11.4327 77.843 12.1438 77.5962 13.0534M79.6509 8.56619C79.1065 8.13621 78.4114 7.92122 77.5683 7.92122C76.8296 7.92122 76.1255 8.0866 75.4577 8.42066C74.7905 8.75416 74.2488 9.20894 73.8329 9.78445L73.8429 9.7183L74.3359 8.16929H71.466L70.7346 10.8649L70.7122 10.9586L67.6971 22.063H70.6396L72.1584 16.4733C72.3091 16.9705 72.6162 17.3608 73.0852 17.6431C73.5543 17.9242 74.1333 18.0637 74.8217 18.0637C75.676 18.0637 76.4912 17.8597 77.2645 17.4518C78.0406 17.0427 78.7106 16.454 79.2802 15.6933C79.8497 14.9326 80.2724 14.0506 80.5421 13.0528C80.8157 12.0534 80.8715 11.162 80.7151 10.382C80.556 9.60088 80.2037 8.99616 79.6599 8.56839M89.4115 13.0142C89.1603 13.9348 88.775 14.6404 88.2557 15.1255C87.7365 15.6139 87.1111 15.857 86.3852 15.857C85.6426 15.857 85.1401 15.62 84.8777 15.1404C84.6097 14.6608 84.6041 13.9662 84.8498 13.0567C85.0954 12.1471 85.4874 11.436 86.029 10.9233C86.5706 10.4107 87.2043 10.1549 87.9313 10.1549C88.6572 10.1549 89.1485 10.4029 89.4054 10.8936C89.6622 11.3858 89.6639 12.0931 89.4137 13.0159L89.4115 13.0142ZM90.7236 8.17149L90.3479 9.55513C90.186 9.05625 89.8733 8.65935 89.4098 8.36443C88.9408 8.07006 88.3657 7.92343 87.6789 7.92343C86.8358 7.92343 86.0217 8.13842 85.2445 8.56839C84.4684 8.99837 83.7872 9.60143 83.2065 10.382C82.6258 11.1626 82.2015 12.0523 81.9279 13.05C81.6571 14.0517 81.604 14.9298 81.766 15.6938C81.9296 16.4546 82.2819 17.0422 82.8268 17.4523C83.3707 17.8602 84.072 18.0664 84.9263 18.0664C85.613 18.0664 86.2691 17.9253 86.8917 17.642C87.4987 17.3698 88.0384 16.9704 88.4735 16.4717L88.0826 17.9148H90.9805L93.626 8.17425H90.7281L90.7236 8.17149ZM105.792 8.1748L105.794 8.17204H104.012C103.956 8.17204 103.905 8.1748 103.853 8.1759H102.929L102.455 8.82638L102.337 8.98073L102.287 9.0579L98.5322 14.222L97.7561 8.1748H94.6807L96.2385 17.3641L92.7991 22.0663H95.8644L96.6964 20.9015C96.7198 20.8673 96.741 20.8386 96.769 20.8023L97.7405 19.4407L97.7684 19.4021L102.12 13.3108L105.788 8.18417L105.794 8.18086H105.792V8.1748Z" fill="#072654"/>
</svg>
