<svg width="114" height="21" viewBox="0 0 114 21" fill="none" xmlns="http://www.w3.org/2000/svg">
<path d="M28.3818 14.5913C28.3818 16.1805 28.3818 17.6766 28.3818 19.1691C28.3818 19.8315 28.2036 20.0065 27.5281 20.0065C26.9417 20.0065 26.359 20.0139 25.7725 20.0027C25.3012 19.9953 25.1082 19.8055 25.071 19.3328C25.0636 19.2249 25.0673 19.117 25.0673 19.009C25.0673 14.5354 25.0673 10.0618 25.0673 5.58453C25.0673 4.73224 25.2195 4.57965 26.0546 4.57965C26.5 4.57965 26.9454 4.57965 27.3945 4.57965C28.1479 4.57965 28.2333 4.64664 28.4077 5.39472C29.0239 4.84389 29.7179 4.46799 30.5308 4.3489C33.0435 3.98788 35.341 5.40961 36.1575 7.82132C36.974 10.2405 36.3691 12.883 34.5875 14.3828C33.0435 15.6817 31.2879 15.9237 29.3987 15.2537C29.0387 15.1309 28.7307 14.9002 28.3818 14.5913ZM28.3669 9.9874C28.3743 11.4203 29.4321 12.5219 30.798 12.5219C32.1453 12.5182 33.192 11.3905 33.1845 9.94274C33.1771 8.52846 32.1082 7.41193 30.7794 7.42681C29.4099 7.44542 28.3595 8.55824 28.3669 9.9874Z" fill="#091C32"/>
<path d="M51.2223 4.58657C51.5304 4.58657 51.8385 4.58657 52.1465 4.58657C52.8035 4.59029 52.9519 4.6945 53.1301 5.31976C53.6571 7.1546 54.1805 8.98944 54.7038 10.8243C54.7706 11.0625 54.8337 11.3007 54.9005 11.5351C54.945 11.6877 54.9859 11.8143 55.1974 11.818C55.4127 11.818 55.4424 11.6877 55.4832 11.5314C55.8358 10.2065 56.1921 8.88523 56.5484 7.564C56.7526 6.80475 56.9493 6.04551 57.1608 5.28999C57.3167 4.73172 57.5023 4.59401 58.085 4.58657C58.7939 4.57913 59.5028 4.57168 60.2117 4.59029C60.7833 4.60518 60.9912 4.88431 60.8204 5.44258C59.5956 9.4435 58.4042 13.4556 57.1126 17.4379C56.3851 19.6747 54.251 20.7503 51.9572 20.233C51.1963 20.0618 50.4837 19.8087 49.8825 19.2913C49.5299 18.9862 49.4779 18.6512 49.7154 18.2716C49.979 17.8547 50.2499 17.4453 50.5431 17.0471C50.7881 16.7121 51.137 16.6861 51.5712 16.9355C51.8496 17.0955 52.1094 17.289 52.4286 17.3709C53.0002 17.5198 53.5606 17.3039 53.8575 16.7978C53.9058 16.7196 53.9429 16.634 53.9689 16.5447C54.0914 16.165 54.4291 15.7147 54.2732 15.4319C54.1248 15.1639 53.568 15.3351 53.1932 15.3463C52.6253 15.3649 52.462 14.9852 52.321 14.561C51.4821 11.9892 50.6433 9.41373 49.8045 6.83825C49.6709 6.42886 49.5373 6.01946 49.4074 5.60634C49.181 4.88059 49.3851 4.60146 50.1497 4.58657C50.5134 4.58285 50.866 4.58657 51.2223 4.58657Z" fill="#091C32"/>
<path d="M45.3425 5.35889C45.5132 4.65547 45.606 4.58476 46.3557 4.58476C46.8493 4.58476 47.3393 4.58103 47.8329 4.58476C48.4862 4.58848 48.6866 4.78201 48.6866 5.44077C48.6903 7.33888 48.6866 9.23699 48.6866 11.1314C48.6866 12.2405 48.6903 13.3533 48.6866 14.4624C48.6866 15.1584 48.5121 15.3258 47.8069 15.3296C47.2688 15.3333 46.7306 15.3333 46.1924 15.3296C45.5874 15.3258 45.4501 15.1956 45.3573 14.5294C44.7597 15.0951 44.0805 15.4412 43.2937 15.564C41.1484 15.8953 39.2035 14.9648 38.0604 13.0555C36.4978 10.4503 37.1622 6.95926 39.5487 5.22862C41.1076 4.10092 43.2825 3.96322 44.756 4.90855C44.9639 5.04254 45.1457 5.20629 45.3425 5.35889ZM45.3907 9.94785C45.3833 8.54846 44.3143 7.41704 42.993 7.41331C41.6569 7.40959 40.5694 8.55962 40.5731 9.97762C40.5768 11.4105 41.6383 12.5308 42.9967 12.5233C44.3366 12.5159 45.3981 11.377 45.3907 9.94785Z" fill="#091C32"/>
<path d="M87.8324 14.5829C86.0249 16.2429 83.1113 15.7627 81.5339 14.2703C78.7873 11.6799 79.229 6.85279 82.4655 4.98073C84.0281 4.07634 85.6686 3.97213 87.2831 4.92863C87.4761 5.044 87.6431 5.20776 87.8658 5.38268C87.9029 5.11099 87.9326 4.84675 88.1627 4.69415C88.3817 4.549 88.6378 4.58622 88.8791 4.58622C89.3876 4.5825 89.896 4.57878 90.4045 4.58622C90.9724 4.59367 91.1877 4.79836 91.1914 5.37152C91.1988 8.42711 91.1988 11.4827 91.1914 14.542C91.1914 15.1263 90.991 15.3236 90.4157 15.331C89.8626 15.3385 89.3059 15.3347 88.7529 15.331C88.0922 15.331 87.9623 15.2194 87.8324 14.5829ZM87.8918 9.97909C87.8992 8.57598 86.8377 7.42967 85.5238 7.42595C84.1505 7.42222 83.0853 8.51271 83.0705 9.9456C83.0556 11.3971 84.1171 12.5211 85.509 12.5211C86.8192 12.5248 87.8844 11.3859 87.8918 9.97909Z" fill="#091C32"/>
<path d="M103.696 7.67109C103.696 5.4343 103.696 3.19378 103.696 0.956988C103.696 0.160525 103.855 0.000488281 104.631 0.000488281C105.14 0.000488281 105.648 0.000488281 106.156 0.000488281C106.854 0.000488281 107.01 0.160525 107.01 0.87883C107.01 3.17889 107.006 5.47896 107.018 7.77902C107.018 7.93534 106.884 8.1847 107.133 8.24797C107.37 8.31124 107.585 8.26658 107.76 8.00605C108.391 7.07561 109.074 6.17865 109.697 5.24449C110.002 4.78671 110.354 4.5634 110.918 4.60434C111.531 4.649 112.151 4.61178 112.767 4.6155C112.993 4.6155 113.257 4.57456 113.383 4.82765C113.52 5.10306 113.435 5.37103 113.26 5.6055C112.652 6.42057 112.036 7.2282 111.423 8.03955C111.152 8.39684 110.9 8.7653 110.61 9.10398C110.432 9.30868 110.454 9.44638 110.599 9.65853C111.62 11.1435 112.629 12.636 113.643 14.1247C113.721 14.24 113.802 14.3517 113.858 14.4782C114.058 14.9137 113.836 15.3119 113.353 15.3231C112.537 15.3454 111.72 15.3305 110.907 15.3268C110.551 15.3268 110.313 15.1333 110.124 14.8393C109.367 13.6594 108.602 12.4871 107.834 11.3147C107.76 11.2031 107.715 11.0616 107.571 11.0133C107.207 10.8867 107.018 11.0244 107.018 11.4264C107.018 12.461 107.021 13.4957 107.018 14.5266C107.018 15.1407 106.843 15.3194 106.22 15.3268C105.667 15.3343 105.11 15.3305 104.557 15.3268C103.892 15.3231 103.707 15.1407 103.707 14.4708C103.692 12.208 103.696 9.94138 103.696 7.67109Z" fill="#091C32"/>
<path d="M66.0427 4.31294C67.3084 4.32782 68.4626 4.71117 69.513 5.3997C70.2925 5.90958 70.3407 6.30409 69.732 6.99635C69.5687 7.18243 69.4054 7.3648 69.2421 7.55089C68.8041 8.04589 68.5295 8.10172 67.9579 7.7742C67.3715 7.43552 66.7924 7.08195 66.1058 6.9889C65.7681 6.94052 65.434 6.90702 65.1 7.01868C64.8068 7.11916 64.4764 7.20477 64.4653 7.58811C64.4542 7.98634 64.7808 8.12777 65.0925 8.22454C65.3858 8.31386 65.6901 8.36596 65.9907 8.42923C66.9224 8.62277 67.8725 8.74559 68.7336 9.18848C69.8174 9.75047 70.4521 10.6214 70.4855 11.8644C70.5151 13.0629 70.0364 14.0491 69.0231 14.6818C66.8593 16.0291 64.6249 15.9137 62.3868 14.853C61.9303 14.6372 61.4886 14.3804 61.162 13.971C60.7389 13.4388 60.7797 13.007 61.3105 12.5827C61.6 12.352 61.9006 12.1399 62.1901 11.9054C62.5279 11.63 62.8619 11.6449 63.2034 11.8868C63.504 12.0989 63.7935 12.3297 64.109 12.5232C64.7585 12.9214 65.4674 13.0815 66.2283 12.9735C66.4473 12.9438 66.6477 12.8693 66.8221 12.7353C67.2304 12.4227 67.1859 11.9761 66.7182 11.7528C66.0724 11.4439 65.3598 11.3843 64.6731 11.2131C64.109 11.0717 63.53 10.9898 62.9918 10.7479C61.8598 10.2343 61.1731 9.38201 61.1063 8.12405C61.0395 6.87725 61.5257 5.88353 62.5761 5.17639C63.6302 4.45809 64.8105 4.29061 66.0427 4.31294Z" fill="#091C32"/>
<path d="M97.762 15.639C93.1745 15.5423 90.7582 10.6444 93.0483 6.9226C95.1008 3.58416 100.212 3.39435 102.479 6.56159C102.865 7.09753 102.813 7.4511 102.286 7.85677C101.919 8.13963 101.555 8.42249 101.184 8.6979C100.761 9.01053 100.523 8.99192 100.13 8.62718C99.8813 8.39643 99.6549 8.14335 99.3876 7.93493C97.9401 6.81095 95.8579 7.64835 95.5647 9.46831C95.2604 11.3776 96.771 12.8663 98.5636 12.4234C99.0796 12.2969 99.4656 11.9693 99.8145 11.5972C100.509 10.8565 100.683 10.8379 101.499 11.4669C101.804 11.7014 102.119 11.9247 102.409 12.1815C102.825 12.5499 102.851 12.8551 102.531 13.3092C101.373 14.9319 99.7514 15.6167 97.762 15.639Z" fill="#091C32"/>
<path d="M72.7073 10.0993C72.7073 9.32887 72.6962 8.55474 72.7148 7.78433C72.7222 7.49775 72.6368 7.39726 72.351 7.42332C72.1061 7.44565 71.8574 7.43076 71.6124 7.42704C71.1411 7.41959 70.9258 7.24839 70.8998 6.77945C70.8701 6.27328 70.8738 5.75968 70.8998 5.25351C70.9221 4.82179 71.1596 4.58731 71.6161 4.58359C71.965 4.57987 72.4253 4.73991 72.6368 4.51288C72.8632 4.26724 72.6962 3.80574 72.7073 3.441C72.7222 2.9795 72.7036 2.51428 72.7148 2.05278C72.7259 1.57639 72.9226 1.36425 73.3791 1.35308C74.0546 1.33819 74.7339 1.34192 75.4094 1.35308C75.8362 1.36052 76.0552 1.59128 76.0515 2.02672C76.0477 2.76736 76.0663 3.508 76.044 4.24863C76.0366 4.54637 76.1331 4.60592 76.4078 4.59848C77.1464 4.57987 77.885 4.58359 78.6236 4.59476C79.236 4.6022 79.4438 4.82179 79.455 5.44332C79.4624 5.84528 79.4624 6.24723 79.455 6.64546C79.4401 7.20745 79.2174 7.43076 78.6681 7.43448C77.9147 7.44192 77.1612 7.44565 76.4078 7.43076C76.1405 7.42332 76.0255 7.4717 76.0329 7.77689C76.0515 8.94925 76.0255 10.1216 76.044 11.294C76.0589 12.3286 76.6639 12.6859 77.614 12.2505C77.7551 12.1872 77.8887 12.1128 78.0297 12.0495C78.3563 11.9043 78.6384 11.9713 78.8351 12.2691C79.1172 12.6934 79.3882 13.1214 79.6368 13.5643C79.8447 13.929 79.7111 14.2491 79.4216 14.5133C78.3712 15.4661 77.0944 15.6894 75.7657 15.5182C73.7688 15.2614 72.7407 14.022 72.7148 12.0048C72.7036 11.3647 72.7073 10.732 72.7073 10.0993Z" fill="#091C32"/>
<path d="M9.0228 10.3955C6.45068 10.3955 3.87857 10.3955 1.30645 10.3955C0.319172 10.3955 0.0111117 10.0829 0.0111117 9.0966C0.0111117 8.67976 0.00368854 8.26292 0.0111117 7.84608C0.0222464 7.12033 0.378557 6.75187 1.09118 6.74815C6.38759 6.74443 11.6877 6.74443 16.9841 6.74815C17.7673 6.74815 18.1124 7.10172 18.1199 7.87958C18.1236 8.35969 18.1236 8.83608 18.1199 9.31619C18.1124 10.0122 17.7376 10.3881 17.0175 10.3918C15.0318 10.3992 13.0461 10.3955 11.0567 10.3955C10.3775 10.3955 9.6983 10.3955 9.0228 10.3955Z" fill="#56C0F1"/>
<path d="M8.6112 5.57624C6.13559 5.57624 3.65626 5.57624 1.18064 5.57624C0.349254 5.57624 0.0189242 5.23756 0.0189242 4.39643C0.0189242 3.92004 0.011501 3.43993 0.0189242 2.96354C0.0263473 2.36806 0.401216 1.97355 0.987643 1.94005C1.21776 1.92517 1.44788 1.93633 1.67799 1.93633C6.40282 1.93633 11.1276 1.93633 15.8488 1.93633C16.8694 1.93633 17.1961 2.26757 17.1998 3.29478C17.1998 3.68185 17.2109 4.06519 17.1961 4.45226C17.1627 5.23383 16.7915 5.57624 15.9935 5.57624C13.5327 5.57624 11.072 5.57624 8.6112 5.57624Z" fill="#56C0F1"/>
<path d="M8.61327 11.5673C11.0889 11.5673 13.5682 11.5673 16.0438 11.5673C16.8195 11.5673 17.1759 11.9059 17.1981 12.6801C17.2093 13.1267 17.213 13.5733 17.1981 14.0199C17.1721 14.8201 16.8195 15.196 16.0327 15.196C11.0629 15.2034 6.09311 15.2034 1.12703 15.196C0.369874 15.196 0.0172746 14.8015 0.0172746 14.0311C0.0172746 13.5696 0.013563 13.1044 0.0172746 12.6429C0.0246977 11.9208 0.377297 11.5635 1.09363 11.5635C3.59894 11.5635 6.10425 11.5673 8.61327 11.5673Z" fill="#56C0F1"/>
<path d="M5.20269 16.3327C6.53886 16.3327 7.87873 16.329 9.2149 16.3327C10.1465 16.3364 10.5028 16.6863 10.5139 17.6056C10.5177 17.9926 10.5214 18.376 10.5139 18.763C10.4917 19.6228 10.1131 19.9912 9.25201 19.9912C7.14384 19.9949 5.03938 19.9912 2.93121 19.9912C2.32994 19.9912 1.73237 20.0024 1.1311 19.9875C0.359094 19.9726 0.00649524 19.6079 0.00278368 18.8449C-0.000927892 18.3685 -0.000927892 17.8884 0.00278368 17.412C0.0139184 16.6974 0.37394 16.3364 1.09398 16.3327C2.46727 16.329 3.83312 16.3327 5.20269 16.3327Z" fill="#56C0F1"/>
</svg>
