<svg width="74" height="22" viewBox="0 0 74 22" fill="none" xmlns="http://www.w3.org/2000/svg">
<path d="M31.0308 7.06445C27.0005 7.06445 23.7305 10.3362 23.7305 14.3489C23.7305 18.3617 27.0093 21.6334 31.0308 21.6334C35.0523 21.6334 38.3312 18.3617 38.3312 14.3489C38.3312 10.3362 35.0611 7.06445 31.0308 7.06445ZM31.0308 18.1859C28.9144 18.1859 27.1913 16.4666 27.1913 14.3548C27.1913 12.243 28.9144 10.5236 31.0308 10.5236C33.1472 10.5236 34.8703 12.243 34.8703 14.3548C34.8703 16.4666 33.1472 18.1859 31.0308 18.1859Z" fill="black"/>
<path d="M55.3169 4.54303C56.5733 4.54303 57.5948 3.52666 57.5948 2.27011C57.5948 1.01356 56.5733 0.00012207 55.3169 0.00012207C54.0606 0.00012207 53.0391 1.01649 53.0391 2.27304C53.0391 3.52959 54.0606 4.54303 55.3169 4.54303Z" fill="black"/>
<path d="M16.133 7.07272C15.9422 7.05807 15.7602 7.04929 15.5723 7.04929C13.8111 7.04929 12.1408 7.76983 10.9432 9.04102C9.74554 7.77568 8.08116 7.04929 6.33753 7.04929C2.84441 7.05221 0 9.88165 0 13.3672V21.34H3.41387V13.4638C3.41387 12.0169 4.60565 10.6842 6.00877 10.5407C6.10857 10.5319 6.20544 10.526 6.29644 10.526C7.87569 10.526 9.16433 11.8119 9.17313 13.3877V21.3371H12.6633V13.4492C12.6633 12.011 13.8463 10.6783 15.2582 10.5348C15.358 10.526 15.4549 10.5202 15.5459 10.5202C17.1251 10.5202 18.4226 11.8002 18.4285 13.3672V21.34H21.9187V13.4638C21.9187 11.8675 21.3257 10.3269 20.2572 9.14061C19.1917 7.94557 17.7269 7.21038 16.133 7.07272Z" fill="black"/>
<path d="M43.7129 0.338135H40.2227V21.3509H43.7129V0.338135ZM50.3938 0.338135H46.9036V21.3509H50.3938V0.338135ZM57.0719 7.41172H53.5817V21.3451H57.0719V7.41172Z" fill="black"/>
<path d="M73.3846 14.0233C73.3846 12.1751 72.6625 10.4352 71.3592 9.10839C70.0471 7.78447 68.3152 7.04929 66.4718 7.04929H66.3808C64.4698 7.07272 62.6616 7.82841 61.3113 9.18454C59.961 10.5407 59.2008 12.3332 59.1802 14.2488C59.1567 16.2025 59.9082 18.0507 61.2966 19.4508C62.6851 20.8508 64.5227 21.6241 66.4806 21.6241H66.4894C69.0549 21.6241 71.459 20.2533 72.7741 18.0507L72.9414 17.7695L70.0588 16.3548L69.915 16.5891C69.187 17.7783 67.9365 18.4813 66.5481 18.4813C64.7722 18.4813 63.2399 17.3009 62.7673 15.6196H73.3846V14.0233ZM66.3338 10.2126C67.9277 10.2126 69.3543 11.2583 69.8563 12.7404H62.8201C63.3133 11.2583 64.7399 10.2126 66.3338 10.2126Z" fill="black"/>
</svg>
