<svg width="100" height="23" viewBox="0 0 100 23" fill="none" xmlns="http://www.w3.org/2000/svg">
<path d="M68.327 14.4986C68.327 15.3914 68.2876 16.2866 68.3386 17.1772C68.3804 17.8919 68.2318 18.1966 67.4098 18.1896C64.6699 18.1685 64.6745 18.206 64.6652 15.4875C64.6629 14.3626 64.6908 13.2331 64.5979 12.1152C64.4934 10.8521 63.9733 10.4092 62.8378 10.4138C61.7232 10.4185 61.0545 11.0138 61.0104 12.2207C60.9523 13.8494 60.957 15.4828 61.008 17.1116C61.0336 17.899 60.8293 18.1896 59.9887 18.1872C57.316 18.1825 57.3253 18.2177 57.3137 15.532C57.3091 14.3298 57.3834 13.1276 57.2162 11.9277C57.0653 10.8404 56.4221 10.3951 55.3934 10.4232C54.3369 10.4537 53.7169 11.0278 53.6798 12.0777C53.6194 13.7838 53.5962 15.4945 53.638 17.2006C53.6589 17.9787 53.4034 18.1779 52.6534 18.1849C49.9158 18.2107 49.9158 18.2364 49.9181 15.4688C49.9181 14.4587 49.932 13.451 49.9204 12.441C49.8972 10.1139 51.0118 8.42421 52.9507 7.32042C54.8756 6.22366 56.8168 6.40411 58.6071 7.70709C59.0436 8.02347 59.3014 7.95785 59.7077 7.67429C61.5189 6.41114 63.4415 6.23538 65.3734 7.34385C67.2566 8.42186 68.2667 10.0811 68.2992 12.291C68.3108 13.0292 68.3015 13.765 68.3015 14.5032C68.3154 14.4986 68.3201 14.4986 68.327 14.4986Z" fill="#303069"/>
<path d="M48.5028 14.9048C48.5028 15.1767 48.5028 15.4462 48.5028 15.718C48.5051 18.4248 48.4099 18.5068 45.656 18.1646C45.5422 18.1506 45.3495 18.174 45.3239 18.1178C44.7481 16.8921 43.9656 17.86 43.3363 17.9795C41.3231 18.3615 39.3935 18.2771 38.0421 16.5804C36.6094 14.7806 36.3517 12.7113 37.1481 10.4569C38.402 6.91819 43.2341 4.98715 46.8031 8.47896C47.9246 9.57572 48.4401 11.0826 48.4819 12.6949C48.5004 13.4308 48.4842 14.1666 48.4842 14.9025C48.4935 14.9048 48.4981 14.9048 48.5028 14.9048ZM44.906 12.4512C44.906 10.9185 43.8727 9.76789 42.505 9.7796C41.1652 9.79367 40.1226 10.9912 40.1365 12.5028C40.1528 14.101 41.1373 15.1837 42.5538 15.1626C44.0004 15.1439 44.906 14.0963 44.906 12.4512Z" fill="#303069"/>
<path d="M99.9858 12.4435C99.9904 15.94 97.6707 18.1101 93.9834 18.178C90.5747 18.2413 87.9136 15.7806 88.0228 12.3966C88.1296 9.03839 90.4841 6.69255 93.9718 6.65036C97.2017 6.61052 100.26 9.16025 99.9858 12.4435ZM91.6335 12.4365C91.6405 14.098 92.632 15.3213 93.9764 15.3283C95.3348 15.3354 96.3588 14.1121 96.3635 12.481C96.3681 10.7796 95.4207 9.68754 93.9578 9.70629C92.5437 9.72738 91.6265 10.803 91.6335 12.4365Z" fill="#303069"/>
<path d="M75.6308 6.66724C79.0024 6.66958 81.668 8.90059 81.6518 12.4627C81.6355 15.903 79.3065 18.0988 75.7028 18.1809C71.904 18.2676 69.6609 15.5163 69.6563 12.4322C69.6516 9.13728 72.1989 6.67192 75.6308 6.66724ZM73.3552 12.4041C73.339 14.2203 74.1726 15.3007 75.6076 15.3241C77.0449 15.3476 78.0782 14.1266 78.0736 12.4112C78.0712 10.848 77.0751 9.7255 75.6796 9.71613C74.1912 9.70207 73.3715 10.6512 73.3552 12.4041Z" fill="#303069"/>
<path d="M5.74219 14.341C5.83042 12.9255 5.60751 11.3624 6.27857 9.80868C7.59051 6.76916 11.7167 5.8013 14.0666 7.5308C15.7315 8.75645 16.5187 10.2469 16.5721 12.2155C16.6185 13.9215 16.5721 15.6276 16.6023 17.3337C16.6115 17.9148 16.442 18.1375 15.8244 18.1726C13.089 18.3296 13.0937 18.3507 13.089 15.5807C13.0867 14.4558 13.1239 13.3286 13.0333 12.2108C12.9288 10.9406 12.2508 10.3805 11.0642 10.4133C9.91253 10.4461 9.26701 11.0742 9.22986 12.3514C9.18342 13.9778 9.18806 15.6088 9.22986 17.2376C9.24843 17.943 9.02552 18.1633 8.31266 18.1773C5.74219 18.2289 5.74219 18.2547 5.74219 15.6557C5.74219 15.2714 5.74219 14.8824 5.74219 14.341Z" fill="#303069"/>
<path d="M23.7964 6.66016C24.9318 6.6461 26.1323 6.88045 27.3026 7.31868C27.8367 7.51788 27.9667 7.78738 27.6416 8.26546C27.5557 8.392 27.4443 8.52324 27.4117 8.66619C27.1285 9.92934 26.5108 10.2645 25.2941 9.65046C24.5766 9.28957 23.7058 9.4044 22.8954 9.4747C22.4124 9.51689 21.9248 9.66218 21.8807 10.2317C21.8343 10.8269 22.3846 10.8175 22.7747 10.9277C23.8498 11.23 24.9829 11.2323 26.0418 11.6565C27.6741 12.3127 28.2152 12.9759 28.2128 14.546C28.2105 16.1279 27.4907 17.2083 25.9791 17.7074C23.6245 18.4855 21.2561 18.2277 18.9062 17.6418C18.2305 17.4731 17.9472 17.0536 18.3489 16.3412C18.5161 16.0435 18.5881 15.6873 18.6833 15.3522C18.8598 14.7312 19.2011 14.5929 19.8025 14.8437C20.9217 15.3124 22.1175 15.4272 23.3157 15.4014C23.7639 15.392 24.349 15.3358 24.4396 14.7804C24.5394 14.1734 23.9403 14.0469 23.52 13.9367C22.4403 13.6532 21.3466 13.4282 20.2553 13.1938C19.2011 12.9689 18.5486 12.376 18.3628 11.2745C18.1678 10.1239 18.1608 9.02241 19.0873 8.15531C20.3784 6.94138 21.9736 6.60391 23.7964 6.66016Z" fill="#303069"/>
<path d="M29.458 10.0712C29.458 8.637 29.4835 7.20044 29.4464 5.76856C29.4278 5.07254 29.6461 4.76788 30.3682 4.82647C30.9418 4.87334 31.5269 4.871 32.1028 4.82881C32.7831 4.77726 33.143 4.98583 33.0316 5.73106C32.9201 6.48098 33.3125 6.64971 33.9813 6.638C34.448 6.63096 35.1771 6.34974 35.3443 6.87235C35.5974 7.66445 35.5881 8.58544 35.342 9.38927C35.212 9.8111 34.5664 9.62361 34.174 9.57909C33.2382 9.47363 32.9457 9.85093 33.013 10.7579C33.0827 11.7234 33.013 12.6959 33.0385 13.6638C33.0711 14.8684 33.496 15.2246 34.6918 15.1824C36.1152 15.1308 35.7158 16.4549 36.0641 17.165C36.4542 17.9618 35.6276 17.868 35.212 17.9876C33.9023 18.3602 32.5695 18.236 31.3504 17.7415C30.0826 17.2283 29.6809 15.9862 29.53 14.7184C29.4394 13.9521 29.4812 13.1693 29.4743 12.396C29.4673 11.6203 29.4719 10.8446 29.4719 10.0689C29.4673 10.0712 29.4626 10.0712 29.458 10.0712Z" fill="#303069"/>
<path d="M86.6123 13.2324C86.6123 15.0955 86.6564 16.9586 86.6007 18.8217C86.538 20.8793 85.4652 22.1916 83.7284 22.6908C82.8483 22.9439 82.3537 22.658 82.1796 21.8471C82.0542 21.2589 81.1208 20.5863 81.8197 20.1317C83.0759 19.3091 83.0457 18.135 83.062 16.9586C83.1061 13.9308 83.1177 10.903 83.0573 7.87752C83.0387 6.90965 83.3127 6.61906 84.281 6.63781C86.6332 6.68233 86.6332 6.63546 86.6332 9.04224C86.6332 10.439 86.6332 11.8357 86.6332 13.2348C86.6263 13.2324 86.6193 13.2324 86.6123 13.2324Z" fill="#303069"/>
<path d="M4.01246 7.9665C4.02175 11.1068 4.01478 14.2471 4.05426 17.3874C4.06354 18.1326 3.73614 18.456 3.06972 18.5451C2.80269 18.5802 2.53334 18.599 2.26398 18.6036C0.229897 18.6388 -0.00230496 18.4185 1.70571e-05 16.4148C0.00466109 13.5839 0.0209152 10.7529 0.0302033 7.92432C1.35375 8.25709 2.68195 8.33209 4.01246 7.9665Z" fill="#303069"/>
<path d="M3.95479 2.13306C3.91764 3.3634 3.26515 4.03833 2.10646 4.04301C0.998863 4.04536 0.137395 3.15483 0.160615 2.03463C0.181513 1.00349 1.18927 -0.025304 2.15058 0.000474545C3.17227 0.0285965 3.98962 0.994119 3.95479 2.13306Z" fill="#D95C37"/>
<path d="M4.01351 7.96613C2.68299 8.33172 1.3548 8.25673 0.03125 7.92395C0.335434 6.35615 1.58003 6.71705 2.59476 6.70064C3.38888 6.68892 4.05298 6.96546 4.01351 7.96613Z" fill="#D95C37"/>
</svg>
