<svg width="67" height="23" viewBox="0 0 67 23" fill="none" xmlns="http://www.w3.org/2000/svg">
<path d="M23.3095 6.55091C23.1553 7.45586 23.0173 8.26636 22.8793 9.076C22.6504 10.4197 22.4173 11.7616 22.1996 13.107C22.1688 13.3002 22.083 13.3363 21.9193 13.3354C21.2911 13.332 20.6637 13.326 20.0355 13.338C19.8023 13.3423 19.7792 13.2393 19.8135 13.0504C20.2892 10.4223 20.764 7.79414 21.2345 5.16602C21.3348 4.60622 21.4299 4.04557 21.5088 3.4832C21.5448 3.22562 21.6374 3.1183 21.9185 3.12775C22.5742 3.14921 23.2315 3.15436 23.8872 3.12603C24.2026 3.11229 24.3312 3.23593 24.4435 3.51153C25.2808 5.56097 26.1354 7.60353 26.9839 9.64868C27.0045 9.69847 27.0053 9.76287 27.1176 9.76544C27.331 8.51964 27.5453 7.26869 27.7596 6.01687C27.9078 5.14885 28.0587 4.28082 28.201 3.41108C28.2344 3.20674 28.3227 3.12517 28.5395 3.13032C29.1103 3.14406 29.682 3.15436 30.2511 3.12775C30.5914 3.11229 30.6231 3.25396 30.5725 3.53042C30.282 5.12481 29.9991 6.72091 29.7146 8.31702C29.4352 9.88393 29.148 11.4491 28.8875 13.0186C28.8438 13.2796 28.7529 13.344 28.5104 13.3397C27.8255 13.3268 27.1407 13.326 26.4559 13.3406C26.2202 13.3457 26.1148 13.2693 26.0222 13.0444C25.1823 10.9949 24.3252 8.95237 23.4732 6.90808C23.4338 6.81793 23.3918 6.73207 23.3095 6.55091Z" fill="#4B5BA9"/>
<path d="M6.67237 8.03145C7.59374 8.2461 8.17828 8.78014 8.35398 9.6516C8.55025 10.6269 8.31541 11.5199 7.57403 12.2308C6.80351 12.9692 5.83328 13.2637 4.81077 13.3023C3.30058 13.3598 1.78696 13.3203 0.27505 13.3392C-0.0120755 13.3426 -0.0215035 13.2053 0.0153513 13.0001C0.585316 9.79842 1.15614 6.5959 1.72439 3.39425C1.74839 3.26117 1.76382 3.13153 1.94123 3.13754C3.56285 3.19248 5.19646 2.97269 6.80522 3.2689C7.95458 3.48097 8.67282 4.20647 8.74224 5.08738C8.84509 6.38555 8.23999 7.38408 7.08377 7.82883C6.95778 7.87605 6.81036 7.8812 6.67237 8.03145ZM2.60548 11.428C3.51056 11.3885 4.38308 11.5353 5.21875 11.1876C5.77071 10.9584 6.08355 10.4415 5.9987 9.86281C5.92756 9.382 5.47759 9.03428 4.86905 9.01625C4.38394 9.00165 3.89454 9.05231 3.41457 8.99908C3.05202 8.95872 2.97831 9.12357 2.93546 9.40604C2.83346 10.0646 2.72118 10.7214 2.60548 11.428ZM4.31794 7.24929C4.81077 7.23126 5.28303 7.28964 5.721 7.05782C6.21897 6.79338 6.45296 6.33575 6.35182 5.78454C6.28582 5.42737 5.90699 5.1552 5.38245 5.0994C5.22732 5.08308 5.06961 5.08222 4.91448 5.08909C4.51936 5.10541 4.00253 4.92253 3.76255 5.1595C3.53199 5.38702 3.57828 5.90045 3.51142 6.28939C3.45914 6.59247 3.27829 7.0209 3.40943 7.17287C3.59456 7.3858 4.02311 7.21494 4.31794 7.24929Z" fill="#4B5BA9"/>
<path d="M24.5528 22.2531C24.7173 22.2119 24.7533 22.0746 24.8185 21.9715C26.195 19.8122 27.5757 17.6554 28.9368 15.4858C29.1296 15.1784 29.3371 15.0531 29.6919 15.0883C30.003 15.1192 30.321 15.1149 30.6321 15.0891C30.9021 15.0668 30.9707 15.2025 31.0118 15.4266C31.4292 17.6743 31.844 19.9221 32.2803 22.1656C32.3532 22.5408 32.3257 22.7091 31.8869 22.6618C31.5201 22.6232 31.1447 22.6387 30.7753 22.6593C30.5541 22.6713 30.4658 22.5828 30.4384 22.3828C30.417 22.2282 30.3887 22.0737 30.3579 21.9209C30.1984 21.131 30.1984 21.131 29.4125 21.131C28.8279 21.131 28.2426 21.1396 27.658 21.1267C27.4369 21.1215 27.2672 21.1567 27.1832 21.3851C27.1643 21.4375 27.1206 21.4804 27.0906 21.5285C26.8601 21.9003 26.7384 22.4317 26.375 22.6034C26.0115 22.7752 25.5084 22.6524 25.067 22.6532C24.3822 22.6558 23.6974 22.6481 23.0126 22.6575C22.8026 22.6601 22.6938 22.6095 22.6063 22.3897C22.2661 21.5319 21.8667 20.6965 21.541 19.8345C21.4064 19.4774 21.163 19.6173 20.9487 19.5924C20.6993 19.5632 20.6942 19.7633 20.6667 19.9315C20.5382 20.7171 20.4036 21.5019 20.2845 22.2892C20.2442 22.5528 20.1533 22.6884 19.8516 22.661C19.5122 22.6301 19.166 22.6369 18.8257 22.6593C18.5549 22.6773 18.4803 22.6 18.53 22.327C18.7983 20.8597 19.052 19.3898 19.31 17.9207C19.4497 17.1231 19.5979 16.3272 19.7214 15.527C19.7694 15.2171 19.8654 15.0694 20.2236 15.0848C21.0781 15.1209 21.9344 15.1072 22.7906 15.1115C22.9774 15.1123 23.1557 15.1441 23.3374 15.1879C24.3625 15.4317 24.9488 15.9864 25.0242 16.8054C25.1322 17.9662 24.6582 18.8463 23.634 19.2275C23.2346 19.376 23.2217 19.5117 23.394 19.8483C23.8003 20.6407 24.1697 21.4512 24.5528 22.2531ZM21.6601 18.3011C22.2584 18.3011 22.5703 18.2461 22.8232 18.0976C23.3031 17.816 23.4094 17.0209 22.9817 16.7582C22.4915 16.4577 21.9155 16.4861 21.3995 16.5891C21.0841 16.6518 21.2298 17.1266 21.1381 17.4073C21.1158 17.4743 21.103 17.5447 21.091 17.6151C20.9787 18.3011 20.9787 18.3011 21.6601 18.3011ZM29.6842 17.1867C29.649 17.1875 29.6139 17.1884 29.5788 17.1892C29.0928 18.0135 28.6068 18.8377 28.0866 19.7212C28.7088 19.7212 29.2591 19.7229 29.8102 19.7203C29.9259 19.7195 30.045 19.7143 30.0193 19.5375C29.9053 18.7536 29.7956 17.9697 29.6842 17.1867Z" fill="#4B5BA9"/>
<path d="M34.61 7.31747C35.2982 6.76196 35.8373 6.0605 36.4553 5.43545C37.1367 4.74773 37.7915 4.03339 38.4549 3.32677C38.556 3.21945 38.6494 3.13188 38.8131 3.13274C39.7362 3.13789 40.6584 3.13531 41.5747 3.13531C40.9096 3.82647 40.2676 4.51763 39.5999 5.18217C38.7214 6.05621 37.8283 6.91651 36.9275 7.76736C36.7253 7.95883 36.7424 8.0859 36.889 8.29968C37.944 9.83655 38.9854 11.382 40.0302 12.9257C40.1073 13.0399 40.1819 13.1558 40.2993 13.3336C39.312 13.3336 38.3923 13.3293 37.4726 13.337C37.2815 13.3387 37.2412 13.1996 37.1709 13.0854C36.283 11.6464 35.3976 10.2049 34.5114 8.76504C34.4823 8.71781 34.4488 8.67403 34.3614 8.5461C34.2654 9.03463 34.1771 9.44761 34.1051 9.86316C33.9226 10.9115 33.7443 11.9607 33.5729 13.0107C33.5352 13.2408 33.4537 13.3516 33.1906 13.3413C32.6207 13.319 32.0498 13.325 31.4799 13.3387C31.239 13.3447 31.149 13.2838 31.1953 13.027C31.5784 10.9046 31.953 8.77963 32.331 6.65636C32.5178 5.60803 32.7201 4.56227 32.8846 3.51051C32.9283 3.2289 33.0046 3.11728 33.302 3.12844C33.872 3.14991 34.4428 3.14304 35.0128 3.13102C35.2716 3.12587 35.3085 3.20228 35.2648 3.459C35.0462 4.74344 34.7411 6.01328 34.6091 7.31317C34.5911 7.31918 34.5731 7.32433 34.5568 7.33292C34.5551 7.33378 34.5637 7.35438 34.568 7.3664C34.58 7.35009 34.5945 7.33378 34.61 7.31747Z" fill="#4B5BA9"/>
<path d="M8.09375 13.334C8.84285 12.1552 9.54137 11.0528 10.2425 9.95295C11.6327 7.76872 13.0263 5.5862 14.4122 3.39853C14.5314 3.2105 14.6548 3.12121 14.8879 3.1298C15.4579 3.14868 16.0295 3.14954 16.5995 3.1298C16.8506 3.12121 16.9406 3.19677 16.9861 3.44575C17.2783 5.03671 17.592 6.62423 17.8929 8.21346C18.1971 9.81815 18.4877 11.4246 18.8048 13.0267C18.8579 13.2946 18.7962 13.3443 18.5511 13.3401C17.9091 13.3289 17.2672 13.3289 16.6252 13.3401C16.4024 13.3435 16.2995 13.2903 16.2704 13.0421C16.2121 12.5484 16.0973 12.0625 16.0295 11.5697C16.0038 11.3842 15.9284 11.3275 15.7578 11.3284C14.5879 11.331 13.418 11.3344 12.2481 11.325C12.0458 11.3232 11.9815 11.4486 11.9018 11.5817C11.5941 12.0934 11.2804 12.6025 10.9813 13.1194C10.9024 13.2551 10.8244 13.3392 10.6556 13.3383C9.8285 13.3306 9.00227 13.334 8.09375 13.334ZM15.2042 5.78625C14.4722 7.03205 13.796 8.18341 13.0974 9.37341C13.8774 9.37341 14.5896 9.34593 15.2993 9.38457C15.697 9.40603 15.7321 9.25321 15.6807 8.93038C15.5196 7.92412 15.3739 6.917 15.2042 5.78625Z" fill="#4B5BA9"/>
<path d="M38.4373 20.0409C38.7116 18.4396 38.9816 16.9294 39.2215 15.4148C39.2627 15.153 39.3492 15.0817 39.5944 15.0911C39.9792 15.1066 40.3649 15.1083 40.7497 15.0903C40.9872 15.0791 41.0489 15.1676 41.0094 15.3848C40.5903 17.7038 40.1678 20.0228 39.7649 22.3453C39.7195 22.6072 39.6269 22.6698 39.3844 22.6595C38.9858 22.6415 38.5839 22.6312 38.187 22.6621C37.8553 22.6879 37.6934 22.5848 37.5656 22.262C36.9914 20.8102 36.3846 19.3712 35.788 17.9279C35.7563 17.8515 35.7075 17.7819 35.6329 17.6489C35.4838 18.5152 35.3424 19.3248 35.2052 20.1353C35.0792 20.8771 34.9541 21.6189 34.835 22.3616C34.8007 22.5745 34.7201 22.6767 34.4784 22.6613C34.109 22.6372 33.7362 22.6381 33.3668 22.6604C33.0873 22.6776 33.0205 22.5823 33.0693 22.3195C33.2613 21.2867 33.443 20.2512 33.6256 19.2166C33.8399 18.0009 34.0644 16.786 34.2573 15.5659C34.3138 15.2088 34.427 15.0413 34.817 15.0877C35.1401 15.1263 35.4778 15.1349 35.7992 15.086C36.2603 15.0164 36.4403 15.2362 36.5946 15.6278C37.1328 16.9869 37.7036 18.3331 38.2625 19.6837C38.301 19.7738 38.3482 19.8588 38.4373 20.0409Z" fill="#4B5BA9"/>
<path d="M66.1347 22.6529C65.4927 22.6529 64.8988 22.6452 64.3048 22.6572C64.1119 22.6615 64.0811 22.5499 64.0237 22.4108C63.6723 21.5582 63.2883 20.7185 62.9634 19.8565C62.8272 19.495 62.5769 19.6049 62.342 19.5895C62.0815 19.5732 62.1166 19.7655 62.0883 19.9372C61.9564 20.7494 61.7995 21.5573 61.6752 22.3713C61.6427 22.5842 61.5844 22.6666 61.3624 22.6581C60.9493 22.6417 60.5353 22.6495 60.1213 22.6546C59.9405 22.6572 59.8873 22.6254 59.9259 22.4116C60.3313 20.1767 60.7161 17.9384 61.1156 15.7018C61.2244 15.0914 61.239 15.0802 61.8861 15.0974C62.81 15.1206 63.74 15.0029 64.6579 15.1772C65.767 15.3884 66.3532 15.9182 66.4398 16.8867C66.5315 17.9084 66.1432 18.6931 65.161 19.1894C64.6339 19.4555 64.6331 19.4487 64.8893 19.9922C65.299 20.8619 65.7053 21.7342 66.1347 22.6529ZM63.0774 18.299C63.8025 18.299 63.9928 18.2587 64.3005 18.0389C64.789 17.6903 64.7856 16.9287 64.2782 16.6926C63.7965 16.4685 63.2454 16.4608 62.7775 16.6016C62.4912 16.6875 62.5872 17.2026 62.5135 17.5263C62.5075 17.5538 62.5075 17.583 62.5023 17.6104C62.3738 18.299 62.3738 18.299 63.0774 18.299Z" fill="#4B5BA9"/>
<path d="M53.6406 22.6553C54.0675 20.1921 54.4874 17.7743 54.9031 15.3548C54.9357 15.1659 55.024 15.0921 55.2177 15.0929C56.6576 15.0981 58.0984 15.0998 59.5383 15.0921C59.7602 15.0912 59.8151 15.1711 59.7671 15.3703C59.7208 15.5634 59.6788 15.7575 59.6403 15.9524C59.5125 16.5912 59.5134 16.5912 58.8543 16.5912C58.1558 16.5912 57.4564 16.5997 56.7579 16.5869C56.5024 16.5817 56.349 16.6332 56.3447 16.926C56.3422 17.1089 56.2985 17.2918 56.2685 17.4738C56.1733 18.0447 56.1725 18.0447 56.7656 18.0447C57.4504 18.0447 58.1352 18.0542 58.8192 18.0396C59.0849 18.0336 59.138 18.1323 59.084 18.3693C59.0017 18.7265 59.0506 19.2013 58.8346 19.4168C58.6083 19.6417 58.1309 19.4769 57.7632 19.4846C57.2498 19.4957 56.7364 19.4975 56.223 19.4829C55.9822 19.476 55.8613 19.5361 55.8348 19.8023C55.7919 20.2264 55.5168 20.7819 55.6934 21.0309C55.8802 21.2945 56.4862 21.0987 56.9087 21.1082C57.507 21.121 58.1069 21.1262 58.7052 21.1047C58.9786 21.0953 59.0669 21.1786 59.006 21.4396C58.9546 21.6611 58.868 21.886 58.8766 22.1067C58.898 22.6373 58.6049 22.6699 58.1832 22.6631C56.829 22.6416 55.4739 22.6553 54.1189 22.6553C53.9646 22.6553 53.8103 22.6553 53.6406 22.6553Z" fill="#4B5BA9"/>
<path d="M43.9039 22.8392C42.8214 22.8212 41.9626 22.5842 41.2298 21.9694C41.013 21.7874 40.9033 21.6234 41.2264 21.4388C41.3241 21.383 41.4021 21.2937 41.4904 21.2225C41.7115 21.0439 41.9095 20.8052 42.1623 20.7047C42.4795 20.5777 42.5857 20.9881 42.8326 21.1031C43.3443 21.3401 43.8499 21.4543 44.3985 21.2757C44.7567 21.1589 44.9684 20.9151 45.0224 20.5416C45.0713 20.2025 44.9033 19.9664 44.6385 19.7904C44.3411 19.5929 44.0094 19.4641 43.6717 19.3525C42.8531 19.0812 42.1923 18.6287 42.0792 17.7049C41.9498 16.6497 42.4032 15.8572 43.3185 15.3275C44.4328 14.6827 46.1992 14.7762 47.124 15.5035C47.4206 15.737 47.5183 15.9224 47.1455 16.1568C47.0623 16.2092 46.9938 16.2856 46.9192 16.3526C46.7281 16.5226 46.5618 16.763 46.3381 16.8446C46.1024 16.9304 45.9738 16.605 45.7655 16.5028C45.2179 16.2341 44.5133 16.2959 44.1319 16.678C43.7368 17.0738 43.7985 17.5795 44.2922 17.8448C44.5528 17.9848 44.8322 18.0947 45.1099 18.2003C46.3492 18.6699 46.9869 19.4444 46.9158 20.4068C46.8275 21.602 46.0389 22.4631 44.7747 22.731C44.4413 22.7997 44.1036 22.8607 43.9039 22.8392Z" fill="#4B5BA9"/>
<path d="M50.1882 18.2006C51.0221 18.2006 51.8312 18.2075 52.6403 18.1972C52.9171 18.1937 53.0757 18.2083 52.9549 18.5664C52.8391 18.9106 52.9574 19.3983 52.702 19.6104C52.4457 19.8233 51.9906 19.6653 51.6221 19.6739C51.1807 19.6842 50.7367 19.6971 50.2962 19.6696C49.9996 19.6507 49.9045 19.7701 49.8608 20.0405C49.7339 20.8244 49.5745 21.6032 49.4511 22.387C49.4176 22.6008 49.3456 22.6704 49.1331 22.6609C48.7628 22.6446 48.39 22.6352 48.0214 22.6626C47.7069 22.6867 47.6683 22.5562 47.7163 22.2935C47.9272 21.1198 48.1269 19.9444 48.3343 18.7707C48.5237 17.6949 48.726 16.6208 48.9034 15.5424C48.9574 15.2136 49.0637 15.0762 49.4391 15.0857C50.7358 15.1157 52.0343 15.108 53.3311 15.09C53.6577 15.0857 53.7922 15.1715 53.6782 15.4926C53.5522 15.8498 53.7048 16.3675 53.398 16.5538C53.128 16.7178 52.6806 16.5908 52.312 16.5916C51.7986 16.5925 51.2852 16.595 50.7718 16.5899C50.579 16.5882 50.4659 16.6182 50.4376 16.8603C50.387 17.2965 50.2799 17.7241 50.1882 18.2006Z" fill="#4B5BA9"/>
<path d="M16.0687 15.0964C16.9386 15.0964 17.8086 15.1016 18.6777 15.093C18.9339 15.0904 19.0779 15.0964 18.9776 15.4381C18.8662 15.8159 18.9819 16.3517 18.7137 16.5697C18.4274 16.8033 17.9191 16.6324 17.5077 16.6376C16.6575 16.647 16.6806 16.6444 16.5418 17.4927C16.2709 19.1455 15.9692 20.7923 15.6873 22.4433C15.6607 22.5987 15.6024 22.6614 15.4413 22.6588C14.999 22.6511 14.5568 22.6459 14.1154 22.6597C13.8788 22.6674 13.8694 22.5627 13.9019 22.3746C14.2216 20.5716 14.5251 18.766 14.861 16.9664C14.9159 16.6711 14.8482 16.629 14.5885 16.6367C14.1188 16.6513 13.6465 16.6204 13.1777 16.6479C12.8597 16.6659 12.8152 16.526 12.8649 16.2701C12.9214 15.9782 13.0003 15.6871 13.0226 15.3926C13.0423 15.1436 13.1486 15.0896 13.374 15.0921C14.2722 15.1024 15.1704 15.0964 16.0687 15.0964Z" fill="#4B5BA9"/>
<path d="M43.014 6.13534C42.996 5.94903 43.0475 5.79963 43.1717 5.6614C43.7974 4.96423 44.4188 4.26277 44.9965 3.52267C45.1148 3.37156 45.161 3.30717 45.0196 3.14747C44.4068 2.4503 43.8137 1.7351 43.2043 1.0345C42.9823 0.779503 42.9497 0.503039 43.0655 0.208545C43.1512 -0.00867582 43.362 0.026526 43.5446 0.036829C43.7768 0.0497078 43.8677 0.259202 43.9894 0.400868C44.6948 1.22339 45.383 2.06051 46.0824 2.88904C46.3284 3.1801 46.3344 3.46343 46.091 3.75363C45.3719 4.61479 44.6494 5.47251 43.9363 6.33882C43.7494 6.56549 43.5351 6.71832 43.2446 6.6213C43.0269 6.55003 42.9866 6.34226 43.014 6.13534Z" fill="#4B5BA9"/>
<path d="M48.8175 3.33409C48.8766 3.57707 48.7661 3.72732 48.6306 3.88702C47.9407 4.69924 47.2627 5.5209 46.5753 6.33483C46.4708 6.45847 46.3542 6.59499 46.1888 6.62418C45.9917 6.65852 45.7302 6.66281 45.6711 6.45246C45.6137 6.2464 45.5494 5.99312 45.7397 5.77418C46.3911 5.02636 47.0279 4.26651 47.6776 3.51697C47.8095 3.365 47.7915 3.26712 47.6604 3.11859C47.003 2.37505 46.3482 1.62895 45.7174 0.86309C45.5511 0.661324 45.5545 0.332487 45.7157 0.156477C45.8982 -0.0427138 46.2042 -0.0701885 46.4228 0.182235C46.967 0.812434 47.5018 1.45036 48.0418 2.08399C48.2141 2.28576 48.3855 2.48839 48.5655 2.68328C48.7438 2.87647 48.9066 3.06879 48.8175 3.33409Z" fill="#4B5BA9"/>
<path d="M34.6218 7.31714C34.6043 7.33661 34.5868 7.35608 34.5683 7.37555C34.5632 7.36223 34.5529 7.33661 34.555 7.33558C34.5745 7.32533 34.5971 7.31919 34.6177 7.31201C34.6177 7.31304 34.6218 7.31714 34.6218 7.31714Z" fill="white"/>
</svg>
