<svg width="57" height="24" viewBox="0 0 57 24" fill="none" xmlns="http://www.w3.org/2000/svg">
<path d="M3.97548 9.15019C3.97548 8.54232 4.4783 8.30843 5.31125 8.30843C6.50537 8.30843 8.01383 8.66705 9.20806 9.30615V5.64286C7.9039 5.12849 6.61542 4.92583 5.31125 4.92583C2.12132 4.92583 0 6.57822 0 9.33739C0 13.6396 5.97107 12.9538 5.97107 14.8088C5.97107 15.5257 5.34263 15.7596 4.46261 15.7596C3.15844 15.7596 1.49277 15.2296 0.172799 14.5126V18.2226C1.63419 18.8461 3.11127 19.111 4.46261 19.111C7.73099 19.111 9.97804 17.5055 9.97804 14.7152C9.96235 10.07 3.97548 10.8961 3.97548 9.15019ZM14.5978 1.80825L10.7637 2.61877L10.748 15.1049C10.748 17.412 12.4922 19.111 14.8178 19.111C16.1063 19.111 17.0491 18.8772 17.5676 18.5966V15.4323C17.0649 15.6349 14.5821 16.3519 14.5821 14.0449V8.51109H17.5676V5.19085H14.5821L14.5978 1.80825ZM22.4546 6.34432L22.2031 5.19085H18.809V18.8304H22.7374V9.58674C23.6644 8.38647 25.2358 8.60469 25.723 8.77611V5.19085C25.2201 5.00376 23.3817 4.6608 22.4546 6.34432ZM26.6814 5.19085H30.6255V18.8304H26.6814V5.19085ZM26.6814 4.00614L30.6255 3.16438V0L26.6814 0.826196V4.00603V4.00614ZM38.828 4.92583C37.288 4.92583 36.2981 5.64286 35.7482 6.14177L35.5438 5.17529H32.0869V23.3509L36.0152 22.5248L36.031 18.1134C36.5967 18.5187 37.4294 19.0954 38.8123 19.0954C41.625 19.0954 44.1863 16.8508 44.1863 11.9094C44.1706 7.38874 41.5778 4.92583 38.828 4.92583ZM37.8852 15.666C36.9581 15.666 36.408 15.3388 36.031 14.9334L36.0152 9.15019C36.4238 8.69818 36.9895 8.38647 37.8852 8.38647C39.3151 8.38647 40.305 9.97638 40.305 12.0184C40.305 14.1073 39.3308 15.666 37.8852 15.666ZM56.5685 12.0652C56.5685 8.07464 54.6199 4.92583 50.8959 4.92583C47.156 4.92583 44.8933 8.07475 44.8933 12.0341C44.8933 16.726 47.5647 19.0954 51.3986 19.0954C53.2686 19.0954 54.6828 18.6746 55.7513 18.0823V14.9646C54.6829 15.4946 53.4572 15.822 51.9016 15.822C50.3773 15.822 49.026 15.292 48.8532 13.4526H56.5371C56.5371 13.2498 56.5685 12.4393 56.5685 12.0652ZM48.806 10.5844C48.806 8.82291 49.8903 8.09021 50.8802 8.09021C51.8387 8.09021 52.8601 8.82291 52.8601 10.5844H48.806Z" fill="#6772E5"/>
</svg>
