<svg width="126" height="24" viewBox="0 0 126 24" fill="none" xmlns="http://www.w3.org/2000/svg">
<path d="M14.028 0.410912C26.6916 0.410912 39.3552 0.377264 52.0187 0.422128C60.7255 0.452972 69.4294 0.609997 78.1361 0.682901C90.7521 0.789454 103.371 0.867966 115.987 0.968911C117.242 0.977323 118.498 1.06425 119.753 1.07266C123.371 1.0979 125.503 3.26259 125.181 6.88818C124.937 9.63892 124.408 12.3644 123.987 15.1011C123.856 15.9676 123.673 16.8256 123.503 17.6864C122.998 20.2549 121.849 21.3625 119.226 21.9373C117.102 22.4 114.956 22.1672 112.82 22.2093C105.234 22.3551 97.6457 22.4112 90.0599 22.5093C76.2362 22.6916 62.4125 22.871 48.5887 23.0645C36.1606 23.2384 23.7352 23.429 11.307 23.6169C9.67886 23.6422 8.05072 23.7403 6.42539 23.7179C3.10187 23.673 0.795579 21.5279 0.582604 18.2276C0.307979 13.9935 0.156655 9.75388 0.00533125 5.51141C-0.140388 1.41755 2.72636 0.0632147 5.50624 0.0211545C8.34777 -0.0209057 11.1865 0.0127425 14.028 0.0127425C14.028 0.144531 14.028 0.279124 14.028 0.410912ZM88.8577 11.7391C88.8577 10.6315 88.8297 9.52395 88.8689 8.41917C88.8942 7.70976 88.6335 7.42094 87.905 7.43777C86.4169 7.46861 84.9233 7.52469 83.4437 7.40973C82.8104 7.36206 82.4573 8.22009 81.9949 7.85556C81.1766 7.21064 80.2995 7.55834 79.4532 7.44337C78.0773 7.25551 76.7154 7.92566 75.3226 7.46581C74.964 7.34804 74.4203 7.35084 74.3418 7.93408C74.2886 8.32664 74.1569 8.96315 74.5912 9.05288C75.8102 9.30524 75.4459 10.1885 75.4656 10.9035C75.502 12.1934 75.5468 13.4916 75.4544 14.7759C75.3787 15.8442 75.9055 15.9928 76.7826 15.9928C77.6513 15.9928 78.2174 15.8498 78.1782 14.7955C78.1221 13.2757 78.195 11.7503 78.153 10.2306C78.1305 9.4202 78.3491 8.9996 79.2486 9.13139C79.9716 9.23794 80.9076 8.90426 80.8432 10.2278C80.7703 11.7475 80.8796 13.2729 80.8095 14.7927C80.7591 15.8638 81.3195 15.9928 82.1855 15.9928C83.0542 15.9928 83.6118 15.8554 83.567 14.7899C83.4997 13.2701 83.5894 11.7447 83.5362 10.225C83.5053 9.33328 83.9089 9.0697 84.7103 9.16504C85.4305 9.24916 86.3889 8.90426 86.3441 10.2306C86.2908 11.8429 86.3581 13.458 86.3244 15.0731C86.3048 15.9844 86.8933 15.99 87.5266 15.9788C88.1712 15.9648 88.8942 16.0853 88.8661 15.0619C88.8353 13.9543 88.8577 12.8467 88.8577 11.7391ZM72.6885 11.7363C72.6885 10.6287 72.6745 9.52115 72.6941 8.41356C72.7053 7.81631 72.5568 7.43496 71.8534 7.44057C70.2701 7.45739 68.6868 7.49385 67.1063 7.42375C66.5459 7.39851 66.2488 8.23691 65.792 7.85837C65.0298 7.22466 64.1919 7.54151 63.3905 7.44337C61.9305 7.26392 60.4789 7.9509 59.0049 7.463C58.6854 7.35645 58.1978 7.38729 58.1642 7.91725C58.139 8.30981 57.954 8.95474 58.3884 9.04447C59.613 9.30524 59.2262 10.1969 59.2487 10.9035C59.2907 12.1934 59.3215 13.4916 59.2431 14.7787C59.1786 15.8414 59.7139 15.9928 60.5938 15.9928C61.4793 15.9928 62.0089 15.819 61.9669 14.7731C61.9052 13.2533 61.9865 11.7251 61.9389 10.2053C61.9137 9.36132 62.1967 9.00521 63.0682 9.13139C63.7912 9.23514 64.716 8.89024 64.6375 10.2306C64.5478 11.7952 64.6487 13.3683 64.6067 14.9385C64.5786 16.0012 65.268 15.976 65.9994 15.9788C66.7448 15.9816 67.3921 15.9732 67.3529 14.9133C67.2941 13.3458 67.3809 11.7728 67.3249 10.2053C67.2885 9.15382 67.9078 9.12298 68.67 9.15943C69.421 9.19588 70.1888 9.08652 70.1356 10.2614C70.0655 11.7812 70.1664 13.3094 70.102 14.8291C70.0627 15.7937 70.5083 15.9928 71.3574 15.9928C72.2345 15.9928 72.7894 15.8442 72.7081 14.7815C72.6268 13.772 72.6885 12.7542 72.6885 11.7363ZM21.4121 15.9788C21.8296 15.9788 22.25 15.9788 22.6675 15.9788C26.6075 15.9788 26.5851 15.9788 26.473 12.0644C26.4478 11.1811 26.176 10.8054 25.254 10.8474C23.8136 10.9147 22.3705 10.8979 20.9301 10.9344C20.2323 10.9512 19.7811 10.8194 19.8036 9.95297C19.826 9.11457 20.3276 9.11737 20.9189 9.12017C22.5022 9.12578 24.0827 9.10896 25.666 9.12578C26.2825 9.13139 26.6159 8.94352 26.6243 8.26215C26.6327 7.54151 26.2376 7.43496 25.6491 7.44057C23.8333 7.45459 22.0202 7.44618 20.2043 7.44618C16.4856 7.44618 16.5333 7.44618 16.5137 11.1335C16.5081 12.2831 16.9228 12.5635 17.9821 12.5074C19.3748 12.4345 20.7731 12.499 22.1687 12.485C22.7376 12.4794 23.1915 12.5495 23.2027 13.2673C23.2167 14.0721 22.6395 13.9711 22.1407 13.9767C20.6526 13.9851 19.1618 13.9879 17.6738 13.9767C16.9844 13.9711 16.5249 14.1057 16.5221 14.9637C16.5193 15.7937 16.9256 15.9928 17.643 15.9816C18.8984 15.9648 20.1538 15.9788 21.4121 15.9788ZM10.1384 7.44618C9.72089 7.44618 9.30055 7.44618 8.88301 7.44618C4.81127 7.44618 4.83369 7.44618 5.01864 11.4783C5.05507 12.2747 5.3409 12.5186 6.10033 12.5018C7.63318 12.4654 9.16884 12.5102 10.7045 12.4822C11.3322 12.471 11.6909 12.6729 11.6797 13.329C11.6685 14.0188 11.1501 13.9767 10.6849 13.9795C9.19686 13.9851 7.70884 13.9964 6.22082 13.9767C5.47541 13.9683 4.99622 14.0945 5.01303 15.031C5.02705 15.9199 5.52025 15.9844 6.17879 15.9816C7.80692 15.976 9.43506 15.9816 11.0604 15.9816C15.0453 15.9816 15.0228 15.9816 14.8939 11.9999C14.8659 11.1811 14.6221 10.8166 13.7674 10.8531C12.4223 10.9119 11.0744 10.9232 9.7265 10.9288C9.05955 10.9316 8.2665 11.1335 8.28051 9.99222C8.29452 8.93511 9.02592 9.137 9.64523 9.13139C10.9931 9.11737 12.3438 9.14261 13.6917 9.12017C14.2914 9.10896 15.0733 9.36693 15.1153 8.30981C15.1573 7.22466 14.3727 7.46581 13.7674 7.45459C12.5568 7.43216 11.349 7.44618 10.1384 7.44618ZM52.327 7.44618C51.0716 7.44618 49.8161 7.46581 48.5635 7.43777C47.9078 7.42375 47.6388 7.69293 47.6416 8.32944C47.65 10.5418 47.6556 12.7542 47.636 14.9665C47.6304 15.6647 47.9162 15.9816 48.6224 15.9788C51.0856 15.9704 53.5488 15.9732 56.012 15.9732C56.6369 15.9732 56.934 15.69 56.9284 15.0422C56.9116 12.8299 56.9088 10.6175 56.9312 8.40515C56.9396 7.70415 56.6846 7.40973 55.9532 7.43496C54.7454 7.47422 53.5348 7.44618 52.327 7.44618ZM95.0172 7.44618C93.7617 7.44618 92.5063 7.47141 91.2509 7.43496C90.5363 7.41533 90.2617 7.66489 90.2757 8.39393C90.3093 10.5614 90.3093 12.7261 90.2757 14.8936C90.2645 15.6479 90.6064 15.8302 91.2901 15.8246C93.7085 15.8021 96.1241 15.8162 98.5425 15.8133C98.8115 15.8133 99.1954 15.9003 99.2963 15.6059C99.5821 14.7759 99.669 13.8926 99.2486 13.0935C99.0441 12.7065 96.7042 12.7402 96.6201 13.1159C96.295 14.5768 95.1769 14.0552 94.3026 14.1394C93.5656 14.2095 93.0752 14.0721 93.064 13.1243C93.0528 12.1569 93.4787 11.9214 94.325 11.9747C94.9275 12.0111 95.5328 11.9831 96.1381 11.9831C99.7222 11.9831 99.7026 11.9831 99.4924 8.39954C99.4504 7.68172 99.2094 7.42094 98.5004 7.44057C97.3431 7.46861 96.1801 7.44618 95.0172 7.44618ZM41.7679 7.44618C40.605 7.44618 39.442 7.47702 38.2819 7.43496C37.5197 7.40692 37.1946 7.65087 37.2114 8.45562C37.2534 10.6231 37.2422 12.7906 37.2142 14.9553C37.2058 15.6563 37.4692 15.9788 38.1782 15.976C40.5966 15.9676 43.015 15.976 45.4334 15.9704C45.8005 15.9704 46.1788 15.9704 46.3777 15.5498C47.0811 14.0552 46.2376 12.7542 44.6123 12.7878C43.993 12.8018 43.4886 12.8635 43.4381 13.6178C43.4045 14.1141 43.0486 14.1422 42.6507 14.187C40.1875 14.4646 40.0361 14.3384 40.0361 11.9046C40.0361 11.3045 40.0361 10.7044 40.0389 10.1072C40.0417 9.63611 40.0361 9.0669 40.6779 9.08933C41.5606 9.12017 42.9785 8.5818 43.2195 9.40899C43.6287 10.8222 44.5058 10.4549 45.3549 10.4997C46.6748 10.567 46.3301 9.57442 46.3777 8.84818C46.431 8.05465 46.4086 7.36206 45.2596 7.42935C44.0967 7.49945 42.9309 7.44618 41.7679 7.44618ZM31.9263 15.9788C32.5792 15.9788 33.2294 15.9788 33.8823 15.9788C36.1578 15.9788 36.1634 15.9648 36.0401 13.772C36.0092 13.2365 35.9868 12.628 35.2694 12.743C34.4932 12.8691 33.3527 12.0924 32.9996 13.3038C32.7502 14.1618 32.257 14.1085 31.6517 14.0861C30.7717 14.0552 30.9455 13.3851 30.9371 12.8635C30.9175 11.526 30.8558 10.1801 30.9511 8.85099C31.038 7.62003 30.4831 7.40412 29.393 7.41533C28.3562 7.42375 27.8321 7.62564 27.9386 8.79491C28.0395 9.89408 27.961 11.0073 27.961 12.1149C27.9582 15.9788 27.9582 15.9788 31.9263 15.9788ZM103.996 12.4934C103.996 11.6157 103.999 10.7381 103.993 9.86043C103.99 9.45385 104.071 9.11456 104.567 9.07811C104.943 9.05007 105.47 9.00801 105.523 9.4202C105.739 11.0577 106.983 10.3539 107.807 10.4044C109.25 10.4969 108.681 9.32767 108.785 8.61265C108.894 7.85276 108.673 7.4602 107.751 7.41814C105.568 7.31719 103.396 7.76023 101.216 7.45739C100.874 7.40973 100.409 7.35645 100.336 7.8808C100.285 8.2313 100.154 8.74724 100.546 8.88464C101.563 9.24075 101.283 10.0399 101.297 10.7297C101.322 12.07 101.32 13.4075 101.3 14.7478C101.289 15.4713 101.513 15.8077 102.337 15.8442C103.517 15.8947 104.242 15.6984 104.01 14.2936C103.914 13.7075 103.993 13.0935 103.996 12.4934ZM114.359 9.05007C113.846 10.2894 113.26 10.5138 112.414 9.49591C112.414 10.5502 112.422 11.3774 112.411 12.2018C112.403 12.6336 112.526 12.9224 113.019 12.9224C114.014 12.9224 115.009 12.9224 116.287 12.9224C114.751 11.8933 115.622 11.3213 116.396 10.6708C116.996 10.1661 117.528 9.58284 118.069 9.01643C118.372 8.69677 118.486 8.29299 118.343 7.86678C118.195 7.41814 117.786 7.44898 117.416 7.44898C115.191 7.44618 112.963 7.45739 110.738 7.44337C110.189 7.44057 109.892 7.56395 109.883 8.20326C109.872 8.89585 110.166 9.07531 110.797 9.05849C111.935 9.02764 113.078 9.05007 114.359 9.05007ZM111.895 11.7503C110.971 12.8411 110.326 13.5617 109.732 14.3188C108.933 15.3311 109.174 15.9788 110.455 16.0208C112.778 16.0966 115.107 16.0349 117.433 16.0573C118.279 16.0657 118.4 15.5778 118.43 14.8936C118.464 14.1281 117.974 14.187 117.447 14.0777C116.099 13.7973 114.535 14.8263 113.378 13.4271C112.167 13.873 111.876 13.1636 111.895 11.7503Z" fill="#2B5EAB"/>
<path d="M88.8648 11.7429C88.8648 12.8505 88.8424 13.9581 88.8704 15.0629C88.8984 16.0864 88.1755 15.9658 87.5309 15.9798C86.8948 15.9938 86.3091 15.9882 86.3287 15.0741C86.3624 13.4618 86.2951 11.8439 86.3484 10.2316C86.3932 8.90529 85.4348 9.25018 84.7146 9.16606C83.9132 9.07353 83.5096 9.33711 83.5405 10.226C83.5937 11.7458 83.504 13.2711 83.5713 14.7909C83.6189 15.8564 83.0585 15.9938 82.1898 15.9938C81.3238 15.9938 80.7634 15.862 80.8138 14.7937C80.8867 13.2739 80.7746 11.7486 80.8475 10.2288C80.9119 8.90529 79.9759 9.23896 79.253 9.13241C78.3534 9.00062 78.132 9.42123 78.1573 10.2316C78.2021 11.7514 78.1264 13.2767 78.1825 14.7965C78.2217 15.8536 77.6556 15.9938 76.7869 15.9938C75.907 15.9938 75.3802 15.8452 75.4586 14.7769C75.5511 13.4927 75.5063 12.1944 75.4699 10.9045C75.4502 10.1923 75.8145 9.30626 74.5955 9.0539C74.1612 8.96417 74.2929 8.32766 74.3461 7.9351C74.4246 7.35187 74.971 7.34906 75.3269 7.46683C76.7197 7.92669 78.0816 7.25653 79.4575 7.4444C80.301 7.55936 81.1809 7.21166 81.9992 7.85659C82.4616 8.22111 82.8147 7.36028 83.448 7.41075C84.9276 7.52571 86.4212 7.46963 87.9092 7.43879C88.6378 7.42197 88.8984 7.71078 88.8732 8.42019C88.8368 9.52778 88.8648 10.6354 88.8648 11.7429Z" fill="#F3F6FA"/>
<path d="M72.692 11.7399C72.692 12.755 72.6304 13.7756 72.7089 14.7851C72.7901 15.8506 72.2353 15.9964 71.3582 15.9964C70.5091 15.9964 70.0607 15.7973 70.1027 14.8327C70.1672 13.313 70.0663 11.7848 70.1364 10.265C70.1896 9.09011 69.4218 9.19667 68.6707 9.16302C67.9085 9.12657 67.2864 9.15741 67.3257 10.2089C67.3817 11.7764 67.2948 13.3494 67.3537 14.9169C67.3957 15.9768 66.7456 15.9852 66.0002 15.9824C65.2688 15.9796 64.5794 16.0048 64.6074 14.9421C64.6495 13.3746 64.5486 11.7988 64.6382 10.2342C64.7167 8.89383 63.792 9.23592 63.069 9.13498C62.1974 9.0116 61.9144 9.36771 61.9396 10.2089C61.9873 11.7315 61.906 13.2569 61.9677 14.7767C62.0097 15.8197 61.4801 15.9964 60.5945 15.9964C59.7146 15.9964 59.1794 15.845 59.2438 14.7823C59.3223 13.4952 59.2915 12.197 59.2494 10.9071C59.227 10.2005 59.6137 9.30883 58.3891 9.04805C57.9548 8.95552 58.1425 8.3134 58.1649 7.92084C58.1986 7.39088 58.6834 7.36004 59.0056 7.46659C60.4796 7.95449 61.9312 7.26751 63.3912 7.44696C64.1927 7.5451 65.0306 7.22825 65.7928 7.86196C66.2496 8.2405 66.5466 7.4021 67.1071 7.42733C68.6876 7.49743 70.2709 7.46379 71.8542 7.44416C72.5575 7.43575 72.7061 7.8199 72.6948 8.41715C72.678 9.52474 72.692 10.6323 72.692 11.7399Z" fill="#F3F6FA"/>
<path d="M21.4141 15.9803C20.1587 15.9803 18.9004 15.9691 17.645 15.9859C16.9276 15.9943 16.5241 15.798 16.5241 14.9681C16.5269 14.1128 16.9865 13.9754 17.6758 13.981C19.1639 13.9923 20.6547 13.9895 22.1427 13.981C22.6415 13.9782 23.2188 14.0764 23.2048 13.2716C23.1908 12.5538 22.7396 12.4837 22.1707 12.4893C20.7752 12.5033 19.374 12.4388 17.9841 12.5117C16.9248 12.5678 16.5101 12.2846 16.5157 11.1378C16.5353 7.4477 16.4877 7.4477 20.2063 7.4477C22.0222 7.4477 23.8353 7.45611 25.6512 7.44209C26.2396 7.43649 26.6348 7.54584 26.6264 8.26367C26.618 8.94504 26.2845 9.13291 25.668 9.1273C24.0847 9.11048 22.5042 9.1273 20.9209 9.1217C20.3296 9.11889 19.828 9.11609 19.8056 9.95449C19.7832 10.8181 20.2343 10.9527 20.9321 10.9359C22.3725 10.8994 23.8157 10.9163 25.256 10.849C26.178 10.8069 26.4498 11.1826 26.475 12.0659C26.5871 15.9803 26.6096 15.9803 22.6695 15.9803C22.252 15.9803 21.8316 15.9803 21.4141 15.9803Z" fill="#F3F6FA"/>
<path d="M10.1371 7.44537C11.3449 7.44537 12.5555 7.43135 13.7633 7.45098C14.3686 7.46219 15.1532 7.22105 15.1112 8.3062C15.0691 9.36331 14.2901 9.10534 13.6876 9.11656C12.3397 9.1418 10.9918 9.11376 9.64109 9.12778C9.02178 9.13338 8.28758 8.9343 8.27637 9.98861C8.26236 11.127 9.05821 10.928 9.72235 10.9251C11.0703 10.9223 12.4182 10.9083 13.7633 10.8494C14.6208 10.813 14.8618 11.1747 14.8898 11.9963C15.0215 15.978 15.0411 15.978 11.0562 15.978C9.42811 15.978 7.79998 15.9752 6.17465 15.978C5.51611 15.9808 5.0229 15.9163 5.00889 15.0274C4.99208 14.0909 5.47127 13.9647 6.21668 13.9731C7.7047 13.9927 9.19272 13.9815 10.6807 13.9759C11.1459 13.9731 11.6643 14.0152 11.6756 13.3254C11.6868 12.6692 11.3281 12.4674 10.7004 12.4786C9.1675 12.5066 7.63184 12.4617 6.09618 12.4982C5.33676 12.515 5.05092 12.2739 5.01449 11.4747C4.82954 7.43976 4.80432 7.44257 8.87886 7.44257C9.30201 7.44537 9.71955 7.44537 10.1371 7.44537Z" fill="#F3F6FA"/>
<path d="M52.3239 7.44825C53.5317 7.44825 54.7423 7.47629 55.9501 7.43704C56.6815 7.4118 56.9337 7.70622 56.9281 8.40722C56.9057 10.6196 56.9085 12.832 56.9253 15.0443C56.9309 15.692 56.6367 15.9724 56.009 15.9753C53.5457 15.9753 51.0825 15.9724 48.6193 15.9809C47.9131 15.9837 47.6273 15.6668 47.6329 14.9686C47.6525 12.7562 47.6469 10.5439 47.6385 8.33152C47.6357 7.69501 47.9047 7.42582 48.5605 7.43984C49.8131 7.46788 51.0685 7.44825 52.3239 7.44825ZM54.2715 11.8337C54.2715 11.3739 54.2239 10.9084 54.2799 10.4542C54.4116 9.39704 53.9381 9.11664 52.9264 9.14748C49.8831 9.23721 50.3735 8.80539 50.3259 11.6991C50.3203 12.0216 50.3679 12.3497 50.3175 12.6637C50.1269 13.861 50.5641 14.2648 51.8251 14.2171C54.2687 14.1246 54.2715 14.1975 54.2715 11.8337Z" fill="#F3F6FA"/>
<path d="M95.0203 7.44624C96.1832 7.44624 97.3462 7.46867 98.5063 7.43782C99.2153 7.4182 99.4563 7.67897 99.4983 8.3968C99.7057 11.9831 99.7281 11.9803 96.144 11.9803C95.5387 11.9803 94.9334 12.0112 94.3309 11.9719C93.4818 11.9186 93.0558 12.1542 93.0699 13.1216C93.0811 14.0693 93.5715 14.2039 94.3085 14.1366C95.1856 14.0553 96.3009 14.5768 96.626 13.1131C96.71 12.7374 99.05 12.7038 99.2545 13.0907C99.6749 13.8871 99.5852 14.7703 99.3022 15.6031C99.2013 15.8947 98.8174 15.8106 98.5484 15.8106C96.13 15.8162 93.7116 15.7994 91.296 15.8218C90.6123 15.8274 90.2704 15.648 90.2816 14.8909C90.3152 12.7234 90.3152 10.5587 90.2816 8.39119C90.2704 7.66214 90.5422 7.41259 91.2568 7.43222C92.5094 7.47147 93.7648 7.44624 95.0203 7.44624ZM94.7232 10.6456C95.0903 10.6456 95.4602 10.6428 95.8273 10.6456C96.5195 10.6484 96.5783 10.1521 96.4606 9.70346C96.1356 8.4669 95.0987 9.20435 94.3982 9.08658C93.9162 9.00527 93.1119 8.74169 93.0615 9.74553C93.0362 10.2531 93.1007 10.668 93.7592 10.6512C94.0787 10.64 94.401 10.6484 94.7232 10.6456Z" fill="#F3F6FA"/>
<path d="M41.7618 7.44555C42.9247 7.44555 44.0905 7.49883 45.2478 7.43153C46.3968 7.36423 46.4192 8.05683 46.366 8.85036C46.3183 9.5766 46.6602 10.5692 45.3431 10.5019C44.4968 10.4599 43.6197 10.8244 43.2078 9.41116C42.9668 8.58398 41.5516 9.12235 40.6661 9.09151C40.0244 9.06907 40.03 9.63548 40.0272 10.1094C40.0244 10.7094 40.0244 11.3095 40.0244 11.9067C40.0244 14.3406 40.1757 14.4668 42.6389 14.1892C43.0368 14.1443 43.3899 14.1135 43.4264 13.62C43.4796 12.8657 43.9812 12.804 44.6005 12.79C46.2258 12.7535 47.0693 14.0574 46.366 15.552C46.167 15.9726 45.7887 15.9726 45.4216 15.9726C43.0032 15.981 40.5848 15.9726 38.1664 15.9782C37.4575 15.981 37.194 15.6585 37.2025 14.9575C37.2305 12.79 37.2389 10.6225 37.1997 8.4578C37.1856 7.65305 37.5079 7.4091 38.2701 7.43714C39.4359 7.4764 40.5988 7.44555 41.7618 7.44555Z" fill="#F3F6FA"/>
<path d="M31.9181 15.9802C27.95 15.9802 27.95 15.9802 27.95 12.1163C27.95 11.0087 28.0285 9.89267 27.9276 8.7963C27.8211 7.62703 28.3452 7.42514 29.382 7.41673C30.4721 7.40551 31.027 7.62142 30.9401 8.85238C30.8448 10.1843 30.9065 11.5274 30.9261 12.8649C30.9345 13.3865 30.7607 14.0566 31.6407 14.0875C32.246 14.1071 32.7392 14.1604 32.9886 13.3052C33.3417 12.0938 34.4822 12.8705 35.2584 12.7443C35.9758 12.6294 35.9982 13.2379 36.0291 13.7734C36.1552 15.969 36.1496 15.9802 33.8713 15.9802C33.2212 15.9802 32.5682 15.9802 31.9181 15.9802Z" fill="#F3F6FA"/>
<path d="M103.999 12.4969C103.999 13.097 103.918 13.7111 104.013 14.2943C104.246 15.7019 103.52 15.8982 102.34 15.8449C101.517 15.8085 101.292 15.472 101.304 14.7486C101.323 13.4082 101.326 12.0707 101.301 10.7304C101.287 10.0406 101.567 9.23867 100.55 8.88536C100.158 8.74797 100.289 8.23203 100.34 7.88153C100.413 7.35718 100.878 7.41045 101.22 7.45812C103.4 7.76095 105.574 7.31792 107.755 7.41886C108.676 7.46092 108.898 7.85349 108.789 8.61337C108.688 9.3284 109.254 10.4949 107.811 10.4051C106.987 10.3519 105.742 11.0585 105.527 9.42093C105.471 9.00594 104.944 9.048 104.571 9.07884C104.078 9.1181 103.994 9.45458 103.997 9.86116C104.005 10.7416 103.999 11.6193 103.999 12.4969Z" fill="#F3F6FA"/>
<path d="M114.369 9.05303C113.088 9.05303 111.945 9.03341 110.804 9.06145C110.174 9.07827 109.88 8.89601 109.891 8.20622C109.902 7.5641 110.196 7.44353 110.746 7.44634C112.971 7.46036 115.198 7.45194 117.424 7.45194C117.793 7.45194 118.203 7.4211 118.351 7.86974C118.491 8.29595 118.379 8.69973 118.076 9.01939C117.536 9.5886 117.003 10.169 116.403 10.6738C115.63 11.3243 114.759 11.8963 116.294 12.9254C115.016 12.9254 114.022 12.9254 113.027 12.9254C112.533 12.9254 112.413 12.6366 112.419 12.2047C112.433 11.3804 112.421 10.5532 112.421 9.49887C113.271 10.5167 113.853 10.2896 114.369 9.05303Z" fill="#F3F6FA"/>
<path d="M111.897 11.7505C111.874 13.1637 112.166 13.8731 113.373 13.4273C114.531 14.8265 116.094 13.8002 117.442 14.0778C117.969 14.1872 118.46 14.1283 118.426 14.8938C118.398 15.578 118.275 16.0659 117.428 16.0575C115.102 16.035 112.774 16.0967 110.451 16.021C109.173 15.9789 108.932 15.3312 109.728 14.319C110.33 13.5619 110.975 12.8412 111.897 11.7505Z" fill="#F3F6FA"/>
<path d="M54.278 11.8325C54.278 14.1963 54.2752 14.1234 51.8316 14.2159C50.5706 14.2636 50.1334 13.8598 50.324 12.6625C50.3744 12.3484 50.3268 12.0204 50.3324 11.6979C50.38 8.80416 49.8896 9.23598 52.9329 9.14625C53.9473 9.11541 54.4181 9.39581 54.2864 10.4529C54.2304 10.9072 54.278 11.3726 54.278 11.8325Z" fill="#2B5EAB"/>
<path d="M94.7158 10.6431C94.3936 10.6431 94.0713 10.6375 93.749 10.6459C93.0905 10.6627 93.0261 10.2477 93.0513 9.74021C93.1017 8.73918 93.9032 9.00276 94.388 9.08127C95.0913 9.19904 96.1282 8.46158 96.4505 9.69815C96.5682 10.1468 96.5093 10.6459 95.8171 10.6403C95.45 10.6403 95.0829 10.6431 94.7158 10.6431Z" fill="#2B5EAB"/>
</svg>
