<svg width="167" height="58" viewBox="0 0 167 58" fill="none" xmlns="http://www.w3.org/2000/svg">
<rect y="3" width="50" height="50" rx="14" fill="#13544E"/>
<path d="M21.0494 13.1038C21.0494 10.9303 22.817 9.16895 24.9984 9.16895C27.1797 9.16895 28.9473 10.9303 28.9473 13.1038C28.9473 15.2774 27.1797 17.0387 24.9984 17.0387C22.817 17.0387 21.0494 15.2774 21.0494 13.1038ZM14.4438 20.391C15.9585 20.391 17.1859 19.1679 17.1859 17.6587C17.1859 16.1495 15.9585 14.9265 14.4438 14.9265C12.9292 14.9265 11.7018 16.1495 11.7018 17.6587C11.7018 19.1679 12.9292 20.391 14.4438 20.391ZM19.8869 27.3886L25.0018 38.1064L30.2705 27.4635C32.1612 23.6445 29.3713 19.1714 25.0975 19.1714C20.8579 19.1714 18.0646 23.573 19.8869 27.3886ZM18.8133 27.8962C17.7842 25.7363 17.9347 23.2391 19.2134 21.2188C19.3228 21.0451 19.4424 20.8748 19.5655 20.7112C15.3499 22.8643 10.4846 21.6038 5.72534 17.6587L22.0033 34.5906L18.8133 27.8962ZM35.5563 20.391C37.0709 20.391 38.2983 19.1679 38.2983 17.6587C38.2983 16.1495 37.0709 14.9265 35.5563 14.9265C34.0417 14.9265 32.8142 16.1495 32.8142 17.6587C32.8142 19.1679 34.0417 20.391 35.5563 20.391ZM31.1868 27.8962L27.99 34.5906L44.2679 17.6587C39.5121 21.6038 34.6434 22.8643 30.4312 20.7112C30.5543 20.8748 30.6739 21.0417 30.7833 21.2188C32.0655 23.2391 32.2159 25.7363 31.1868 27.8962Z" fill="white"/>
<path d="M24.9984 39.2578L3.89624 18.2275L24.9984 46.8312L46.104 18.2275L24.9984 39.2578Z" fill="#22BE0D"/>
<path d="M72.48 32L66.16 4.08H72.16L74.8 17.48L76.28 25.24H76.4L78.16 17.48L81.24 4.08H87.88L91 17.48L92.72 25.24H92.84L94.32 17.48L97 4.08H102.76L96.28 32H89.36L85.84 16.88L84.48 10.76H84.36L82.96 16.88L79.44 32H72.48ZM114.171 32.48C112.624 32.48 111.237 32.2267 110.011 31.72C108.811 31.2133 107.784 30.48 106.931 29.52C106.104 28.56 105.464 27.4 105.011 26.04C104.557 24.68 104.331 23.16 104.331 21.48C104.331 19.8 104.557 18.28 105.011 16.92C105.464 15.56 106.104 14.4133 106.931 13.48C107.784 12.52 108.811 11.7867 110.011 11.28C111.237 10.7733 112.624 10.52 114.171 10.52C115.717 10.52 117.091 10.7733 118.291 11.28C119.517 11.7867 120.544 12.52 121.371 13.48C122.224 14.4133 122.877 15.56 123.331 16.92C123.784 18.28 124.011 19.8 124.011 21.48C124.011 23.16 123.784 24.68 123.331 26.04C122.877 27.4 122.224 28.56 121.371 29.52C120.544 30.48 119.517 31.2133 118.291 31.72C117.091 32.2267 115.717 32.48 114.171 32.48ZM114.171 27.8C115.344 27.8 116.251 27.44 116.891 26.72C117.531 26 117.851 24.9733 117.851 23.64V19.36C117.851 18.0267 117.531 17 116.891 16.28C116.251 15.56 115.344 15.2 114.171 15.2C112.997 15.2 112.091 15.56 111.451 16.28C110.811 17 110.491 18.0267 110.491 19.36V23.64C110.491 24.9733 110.811 26 111.451 26.72C112.091 27.44 112.997 27.8 114.171 27.8ZM128.229 32V11H134.149V15.56H134.349C134.455 14.9733 134.642 14.4133 134.909 13.88C135.175 13.32 135.522 12.8267 135.949 12.4C136.402 11.9733 136.935 11.64 137.549 11.4C138.162 11.1333 138.882 11 139.709 11H140.749V16.52H139.269C137.535 16.52 136.242 16.7467 135.389 17.2C134.562 17.6533 134.149 18.4933 134.149 19.72V32H128.229ZM144.401 2.4H150.321V19.88H150.561L153.161 16L157.361 11H163.921L156.921 19.04L164.721 32H157.681L152.961 23.12L150.321 26.08V32H144.401V2.4Z" fill="#22BE0D"/>
<path d="M130.624 53V51.128L134.8 46.44H130.768V44.6H137.552V46.456L133.36 51.16H137.664V53H130.624ZM142.606 53.192C141.987 53.192 141.432 53.0907 140.942 52.888C140.462 52.6853 140.051 52.392 139.71 52.008C139.379 51.624 139.123 51.16 138.942 50.616C138.76 50.072 138.67 49.464 138.67 48.792C138.67 48.12 138.76 47.512 138.942 46.968C139.123 46.424 139.379 45.9653 139.71 45.592C140.051 45.208 140.462 44.9147 140.942 44.712C141.432 44.5093 141.987 44.408 142.606 44.408C143.224 44.408 143.774 44.5093 144.254 44.712C144.744 44.9147 145.155 45.208 145.486 45.592C145.827 45.9653 146.088 46.424 146.27 46.968C146.451 47.512 146.542 48.12 146.542 48.792C146.542 49.464 146.451 50.072 146.27 50.616C146.088 51.16 145.827 51.624 145.486 52.008C145.155 52.392 144.744 52.6853 144.254 52.888C143.774 53.0907 143.224 53.192 142.606 53.192ZM142.606 51.32C143.075 51.32 143.438 51.176 143.694 50.888C143.95 50.6 144.078 50.1893 144.078 49.656V47.944C144.078 47.4107 143.95 47 143.694 46.712C143.438 46.424 143.075 46.28 142.606 46.28C142.136 46.28 141.774 46.424 141.518 46.712C141.262 47 141.134 47.4107 141.134 47.944V49.656C141.134 50.1893 141.262 50.6 141.518 50.888C141.774 51.176 142.136 51.32 142.606 51.32ZM148.229 53V44.6H150.597V46.024H150.693C150.842 45.5867 151.104 45.208 151.477 44.888C151.85 44.568 152.368 44.408 153.029 44.408C153.893 44.408 154.544 44.696 154.981 45.272C155.429 45.848 155.653 46.6693 155.653 47.736V53H153.285V47.928C153.285 47.384 153.2 46.984 153.029 46.728C152.858 46.4613 152.554 46.328 152.117 46.328C151.925 46.328 151.738 46.3547 151.557 46.408C151.376 46.4507 151.21 46.5253 151.061 46.632C150.922 46.7387 150.81 46.872 150.725 47.032C150.64 47.1813 150.597 47.3573 150.597 47.56V53H148.229ZM161.264 53.192C160.624 53.192 160.054 53.0907 159.552 52.888C159.051 52.6747 158.624 52.3813 158.272 52.008C157.931 51.624 157.67 51.16 157.488 50.616C157.318 50.072 157.232 49.464 157.232 48.792C157.232 48.1307 157.318 47.5333 157.488 47C157.659 46.456 157.91 45.992 158.24 45.608C158.582 45.224 158.998 44.9307 159.488 44.728C159.979 44.5147 160.539 44.408 161.168 44.408C161.862 44.408 162.454 44.5253 162.944 44.76C163.446 44.9947 163.851 45.3093 164.16 45.704C164.48 46.0987 164.71 46.5573 164.848 47.08C164.998 47.592 165.072 48.1307 165.072 48.696V49.4H159.68V49.528C159.68 50.0827 159.83 50.5253 160.128 50.856C160.427 51.176 160.896 51.336 161.536 51.336C162.027 51.336 162.427 51.24 162.736 51.048C163.046 50.8453 163.334 50.6053 163.6 50.328L164.784 51.8C164.411 52.2373 163.92 52.5787 163.312 52.824C162.715 53.0693 162.032 53.192 161.264 53.192ZM161.216 46.152C160.736 46.152 160.358 46.312 160.08 46.632C159.814 46.9413 159.68 47.3573 159.68 47.88V48.008H162.624V47.864C162.624 47.352 162.507 46.9413 162.272 46.632C162.048 46.312 161.696 46.152 161.216 46.152Z" fill="white"/>
</svg>
