<svg width="135" height="40" viewBox="0 0 135 40" fill="none" xmlns="http://www.w3.org/2000/svg">
<rect x="0.5" y="0.5" width="134" height="39" rx="7.5" fill="black"/>
<rect x="0.5" y="0.5" width="134" height="39" rx="7.5" stroke="#A6A6A6"/>
<path d="M68.137 21.7522C65.785 21.7522 63.868 23.5402 63.868 26.0052C63.868 28.4542 65.785 30.2582 68.137 30.2582C70.489 30.2582 72.406 28.4542 72.406 26.0052C72.406 23.5402 70.489 21.7522 68.137 21.7522ZM68.137 28.5832C66.848 28.5832 65.736 27.5202 65.736 26.0052C65.736 24.4742 66.848 23.4272 68.137 23.4272C69.426 23.4272 70.537 24.4742 70.537 26.0052C70.537 27.5192 69.426 28.5832 68.137 28.5832ZM58.823 21.7522C56.471 21.7522 54.554 23.5402 54.554 26.0052C54.554 28.4542 56.471 30.2582 58.823 30.2582C61.175 30.2582 63.092 28.4542 63.092 26.0052C63.093 23.5402 61.175 21.7522 58.823 21.7522ZM58.823 28.5832C57.534 28.5832 56.423 27.5202 56.423 26.0052C56.423 24.4742 57.535 23.4272 58.823 23.4272C60.112 23.4272 61.223 24.4742 61.223 26.0052C61.224 27.5192 60.112 28.5832 58.823 28.5832ZM47.745 24.8612H52.063C51.934 25.8762 51.596 26.6172 51.08 27.1332C50.452 27.7612 49.469 28.4542 47.745 28.4542C45.087 28.4542 43.009 26.3112 43.009 23.6532C43.009 20.9952 45.087 18.8522 47.745 18.8522C49.179 18.8522 50.226 19.4162 50.999 20.1412L52.272 18.8682C51.193 17.8372 49.759 17.0472 47.745 17.0472C44.104 17.0472 41.043 20.0112 41.043 23.6522C41.043 27.2932 44.104 30.2572 47.745 30.2572C49.71 30.2572 51.193 29.6132 52.353 28.4042C53.545 27.2122 53.916 25.5362 53.916 24.1832C53.916 23.7642 53.884 23.3772 53.819 23.0552H47.745V24.8612ZM93.053 24.4582C92.699 23.5072 91.619 21.7512 89.412 21.7512C87.221 21.7512 85.401 23.4752 85.401 26.0042C85.401 28.3882 87.205 30.2572 89.622 30.2572C91.571 30.2572 92.699 29.0652 93.166 28.3722L91.716 27.4052C91.233 28.1142 90.572 28.5812 89.622 28.5812C88.671 28.5812 87.995 28.1462 87.56 27.2922L93.247 24.9402L93.053 24.4582ZM87.253 25.8762C87.205 24.2332 88.526 23.3952 89.476 23.3952C90.217 23.3952 90.845 23.7652 91.055 24.2972L87.253 25.8762ZM82.629 30.0002H84.498V17.4992H82.629V30.0002ZM79.568 22.7022H79.504C79.085 22.2032 78.28 21.7512 77.265 21.7512C75.138 21.7512 73.189 23.6202 73.189 26.0202C73.189 28.4042 75.138 30.2572 77.265 30.2572C78.28 30.2572 79.085 29.8062 79.504 29.2902H79.568V29.9022C79.568 31.5292 78.698 32.3992 77.296 32.3992C76.152 32.3992 75.443 31.5772 75.153 30.8852L73.526 31.5622C73.993 32.6902 75.234 34.0752 77.296 34.0752C79.487 34.0752 81.34 32.7862 81.34 29.6452V22.0092H79.568V22.7022ZM77.426 28.5832C76.137 28.5832 75.058 27.5042 75.058 26.0212C75.058 24.5232 76.137 23.4272 77.426 23.4272C78.699 23.4272 79.697 24.5222 79.697 26.0212C79.697 27.5032 78.699 28.5832 77.426 28.5832ZM101.807 17.4992H97.336V30.0002H99.201V25.2642H101.806C103.874 25.2642 105.907 23.7672 105.907 21.3822C105.907 18.9972 103.875 17.4992 101.807 17.4992ZM101.855 23.5242H99.201V19.2392H101.855C103.25 19.2392 104.042 20.3942 104.042 21.3822C104.042 22.3502 103.25 23.5242 101.855 23.5242ZM113.387 21.7292C112.036 21.7292 110.637 22.3242 110.058 23.6432L111.715 24.3352C112.069 23.6432 112.728 23.4182 113.42 23.4182C114.385 23.4182 115.366 23.9972 115.382 25.0262V25.1552C115.044 24.9622 114.32 24.6722 113.436 24.6722C111.651 24.6722 109.833 25.6532 109.833 27.4872C109.833 29.1602 111.297 30.2372 112.937 30.2372C114.192 30.2372 114.883 29.6742 115.317 29.0152H115.381V29.9802H117.182V25.1872C117.182 22.9672 115.526 21.7292 113.387 21.7292ZM113.161 28.5802C112.55 28.5802 111.697 28.2742 111.697 27.5192C111.697 26.5542 112.759 26.1842 113.675 26.1842C114.495 26.1842 114.881 26.3612 115.38 26.6022C115.236 27.7602 114.239 28.5802 113.161 28.5802ZM123.744 22.0022L121.605 27.4222H121.541L119.322 22.0022H117.312L120.641 29.5772L118.743 33.7912H120.689L125.82 22.0022H123.744ZM106.937 30.0002H108.803V17.4992H106.937V30.0002Z" fill="white"/>
<path d="M47.376 9.79121H44.468V10.5122H46.647C46.588 11.0982 46.353 11.5592 45.96 11.8942C45.566 12.2292 45.063 12.3972 44.468 12.3972C43.814 12.3972 43.261 12.1712 42.809 11.7182C42.365 11.2572 42.138 10.6882 42.138 10.0002C42.138 9.31321 42.365 8.74321 42.809 8.28221C43.261 7.83021 43.814 7.60421 44.468 7.60421C44.803 7.60421 45.122 7.66221 45.415 7.78821C45.708 7.91421 45.943 8.09021 46.127 8.31621L46.68 7.76321C46.429 7.47821 46.11 7.26021 45.717 7.10121C45.323 6.94221 44.912 6.86621 44.468 6.86621C43.596 6.86621 42.859 7.16821 42.256 7.77121C41.652 8.37521 41.351 9.12021 41.351 10.0002C41.351 10.8802 41.652 11.6262 42.256 12.2292C42.859 12.8332 43.596 13.1342 44.468 13.1342C45.381 13.1342 46.11 12.8412 46.672 12.2462C47.166 11.7522 47.418 11.0812 47.418 10.2432C47.418 10.1012 47.401 9.95021 47.376 9.79121Z" fill="white"/>
<path d="M48.524 7.00021V13.0002H52.027V12.2632H49.295V10.3612H51.758V9.64021H49.295V7.73821H52.027V7.00021H48.524Z" fill="white"/>
<path d="M56.953 7.73821V7.00021H52.83V7.73821H54.506V13.0002H55.277V7.73821H56.953Z" fill="white"/>
<path d="M60.7079 7.00021H59.9369V13.0002H60.7079V7.00021Z" fill="white"/>
<path d="M65.8029 7.73821V7.00021H61.6799V7.73821H63.3559V13.0002H64.1269V7.73821H65.8029Z" fill="white"/>
<path d="M73.605 7.78021C73.01 7.16821 72.281 6.86621 71.409 6.86621C70.538 6.86621 69.808 7.16821 69.213 7.77121C68.618 8.36621 68.325 9.11221 68.325 10.0002C68.325 10.8892 68.618 11.6342 69.213 12.2292C69.808 12.8332 70.538 13.1342 71.409 13.1342C72.272 13.1342 73.01 12.8332 73.605 12.2292C74.2 11.6342 74.493 10.8892 74.493 10.0002C74.493 9.12021 74.2 8.37521 73.605 7.78021ZM69.767 8.28221C70.211 7.83021 70.755 7.60421 71.409 7.60421C72.063 7.60421 72.607 7.83021 73.043 8.28221C73.487 8.72721 73.705 9.30521 73.705 10.0002C73.705 10.6962 73.487 11.2742 73.043 11.7182C72.607 12.1712 72.063 12.3972 71.409 12.3972C70.755 12.3972 70.211 12.1712 69.767 11.7182C69.331 11.2662 69.113 10.6962 69.113 10.0002C69.113 9.30521 69.331 8.73521 69.767 8.28221Z" fill="white"/>
<path d="M76.345 9.26321L76.312 8.10621H76.345L79.396 13.0002H80.2V7.00021H79.429V10.5122L79.463 11.6682H79.429L76.513 7.00021H75.575V13.0002H76.345V9.26321Z" fill="white"/>
<path d="M20.7173 19.4246L10.0703 30.7246C10.0713 30.7266 10.0713 30.7286 10.0723 30.7306C10.3983 31.9586 11.5193 32.8616 12.8493 32.8616C13.3813 32.8616 13.8803 32.7176 14.3083 32.4656L14.3423 32.4456L26.3263 25.5306L20.7173 19.4246Z" fill="#EB4335"/>
<path d="M31.4896 17.5007L31.4796 17.4937L26.3056 14.4937L20.4766 19.6807L26.3256 25.5287L31.4726 22.5597C32.3746 22.0727 32.9866 21.1217 32.9866 20.0247C32.9866 18.9357 32.3826 17.9887 31.4896 17.5007Z" fill="#FABC13"/>
<path d="M10.0707 9.27759C10.0067 9.51359 9.97266 9.76059 9.97266 10.0176V29.9846C9.97266 30.2416 10.0053 30.4896 10.0703 30.7246L21.0837 19.7136L10.0707 9.27759Z" fill="#547DBF"/>
<path d="M20.7953 20.0006L26.3063 14.4916L14.3353 7.55163C13.9003 7.29063 13.3933 7.14062 12.8493 7.14062C11.5193 7.14062 10.3973 8.04562 10.0703 9.27463L10.0707 9.27759L20.7953 20.0006Z" fill="#30A851"/>
</svg>
