<svg width="178" height="60" viewBox="0 0 178 60" fill="none" xmlns="http://www.w3.org/2000/svg">
<path d="M0 12C0 5.37258 5.37258 0 12 0H48C54.6274 0 60 5.37258 60 12V48C60 54.6274 54.6274 60 48 60H12C5.37258 60 0 54.6274 0 48V12Z" fill="#13544E"/>
<path d="M25.2599 12.1242C25.2599 9.51593 27.3811 7.40234 29.9987 7.40234C32.6163 7.40234 34.7375 9.51593 34.7375 12.1242C34.7375 14.7324 32.6163 16.846 29.9987 16.846C27.3811 16.846 25.2599 14.7324 25.2599 12.1242ZM17.3333 20.8688C19.1508 20.8688 20.6238 19.4011 20.6238 17.5901C20.6238 15.779 19.1508 14.3114 17.3333 14.3114C15.5157 14.3114 14.0428 15.779 14.0428 17.5901C14.0428 19.4011 15.5157 20.8688 17.3333 20.8688ZM23.865 29.2659L30.0028 42.1273L36.3253 29.3559C38.5941 24.773 35.2462 19.4052 30.1177 19.4052C25.0302 19.4052 21.6782 24.6872 23.865 29.2659ZM22.5767 29.8751C21.3418 27.2831 21.5223 24.2865 23.0567 21.8622C23.188 21.6537 23.3316 21.4493 23.4793 21.2531C18.4205 23.8368 12.5822 22.3242 6.87109 17.5901L26.4046 37.9083L22.5767 29.8751ZM42.6682 20.8688C44.4858 20.8688 45.9587 19.4011 45.9587 17.5901C45.9587 15.779 44.4858 14.3114 42.6682 14.3114C40.8507 14.3114 39.3778 15.779 39.3778 17.5901C39.3778 19.4011 40.8507 20.8688 42.6682 20.8688ZM37.4248 29.8751L33.5887 37.9083L53.1222 17.5901C47.4152 22.3242 41.5728 23.8368 36.5181 21.2531C36.6658 21.4493 36.8094 21.6496 36.9407 21.8622C38.4792 24.2865 38.6598 27.2831 37.4248 29.8751Z" fill="white"/>
<path d="M29.9984 43.5098L4.67578 18.2734L29.9984 52.5978L55.3251 18.2734L29.9984 43.5098Z" fill="#22BE0D"/>
<path d="M155.357 6H161.7V24.7286H161.957L164.743 20.5714L169.243 15.2143H176.272L168.772 23.8286L177.129 37.7143H169.586L164.529 28.2L161.7 31.3714V37.7143H155.357V6Z" fill="#22BE0D"/>
<path d="M138.03 37.7139V15.2139H144.373V20.0996H144.587C144.702 19.471 144.902 18.871 145.187 18.2996C145.473 17.6996 145.845 17.171 146.302 16.7139C146.787 16.2567 147.359 15.8996 148.016 15.6424C148.673 15.3567 149.445 15.2139 150.33 15.2139H151.445V21.1282H149.859C148.002 21.1282 146.616 21.371 145.702 21.8567C144.816 22.3424 144.373 23.2424 144.373 24.5567V37.7139H138.03Z" fill="#22BE0D"/>
<path d="M122.969 38.2288C121.311 38.2288 119.826 37.9573 118.511 37.4145C117.226 36.8716 116.126 36.0859 115.211 35.0573C114.326 34.0288 113.64 32.7859 113.154 31.3288C112.669 29.8716 112.426 28.2431 112.426 26.4431C112.426 24.6431 112.669 23.0145 113.154 21.5573C113.64 20.1002 114.326 18.8716 115.211 17.8716C116.126 16.8431 117.226 16.0573 118.511 15.5145C119.826 14.9716 121.311 14.7002 122.969 14.7002C124.626 14.7002 126.097 14.9716 127.383 15.5145C128.697 16.0573 129.797 16.8431 130.683 17.8716C131.597 18.8716 132.297 20.1002 132.783 21.5573C133.269 23.0145 133.511 24.6431 133.511 26.4431C133.511 28.2431 133.269 29.8716 132.783 31.3288C132.297 32.7859 131.597 34.0288 130.683 35.0573C129.797 36.0859 128.697 36.8716 127.383 37.4145C126.097 37.9573 124.626 38.2288 122.969 38.2288ZM122.969 33.2145C124.226 33.2145 125.197 32.8288 125.883 32.0573C126.569 31.2859 126.911 30.1859 126.911 28.7573V24.1716C126.911 22.7431 126.569 21.6431 125.883 20.8716C125.197 20.1002 124.226 19.7145 122.969 19.7145C121.711 19.7145 120.74 20.1002 120.054 20.8716C119.369 21.6431 119.026 22.7431 119.026 24.1716V28.7573C119.026 30.1859 119.369 31.2859 120.054 32.0573C120.74 32.8288 121.711 33.2145 122.969 33.2145Z" fill="#22BE0D"/>
<path d="M78.2997 37.7141L71.5283 7.7998H77.9569L80.7855 22.1569L82.3712 30.4712H82.4998L84.3855 22.1569L87.6855 7.7998H94.7998L98.1426 22.1569L99.9855 30.4712H100.114L101.7 22.1569L104.571 7.7998H110.743L103.8 37.7141H96.3855L92.614 21.5141L91.1569 14.9569H91.0283L89.5283 21.5141L85.7569 37.7141H78.2997Z" fill="#22BE0D"/>
<path d="M173.212 53.3489C172.526 53.3489 171.914 53.2404 171.377 53.0232C170.84 52.7946 170.383 52.4804 170.006 52.0804C169.64 51.6689 169.36 51.1718 169.166 50.5889C168.983 50.0061 168.892 49.3546 168.892 48.6346C168.892 47.9261 168.983 47.2861 169.166 46.7146C169.349 46.1318 169.617 45.6346 169.972 45.2232C170.337 44.8118 170.783 44.4975 171.309 44.2804C171.834 44.0518 172.434 43.9375 173.109 43.9375C173.852 43.9375 174.486 44.0632 175.012 44.3146C175.549 44.5661 175.983 44.9032 176.314 45.3261C176.657 45.7489 176.903 46.2404 177.052 46.8004C177.212 47.3489 177.292 47.9261 177.292 48.5318V49.2861H171.514V49.4232C171.514 50.0175 171.674 50.4918 171.994 50.8461C172.314 51.1889 172.817 51.3604 173.503 51.3604C174.029 51.3604 174.457 51.2575 174.789 51.0518C175.12 50.8346 175.429 50.5775 175.714 50.2804L176.983 51.8575C176.583 52.3261 176.057 52.6918 175.406 52.9546C174.766 53.2175 174.034 53.3489 173.212 53.3489ZM173.16 45.8061C172.646 45.8061 172.24 45.9775 171.943 46.3204C171.657 46.6518 171.514 47.0975 171.514 47.6575V47.7946H174.669V47.6404C174.669 47.0918 174.543 46.6518 174.292 46.3204C174.052 45.9775 173.674 45.8061 173.16 45.8061Z" fill="#13544E"/>
<path d="M159.245 53.1432V44.1432H161.782V45.6689H161.885C162.045 45.2004 162.325 44.7946 162.725 44.4518C163.125 44.1089 163.679 43.9375 164.388 43.9375C165.314 43.9375 166.011 44.2461 166.479 44.8632C166.959 45.4804 167.199 46.3604 167.199 47.5032V53.1432H164.662V47.7089C164.662 47.1261 164.571 46.6975 164.388 46.4232C164.205 46.1375 163.879 45.9946 163.411 45.9946C163.205 45.9946 163.005 46.0232 162.811 46.0804C162.617 46.1261 162.439 46.2061 162.279 46.3204C162.131 46.4346 162.011 46.5775 161.919 46.7489C161.828 46.9089 161.782 47.0975 161.782 47.3146V53.1432H159.245Z" fill="#13544E"/>
<path d="M153.22 53.3489C152.557 53.3489 151.963 53.2404 151.437 53.0232C150.923 52.8061 150.483 52.4918 150.117 52.0804C149.763 51.6689 149.489 51.1718 149.294 50.5889C149.1 50.0061 149.003 49.3546 149.003 48.6346C149.003 47.9146 149.1 47.2632 149.294 46.6804C149.489 46.0975 149.763 45.6061 150.117 45.2061C150.483 44.7946 150.923 44.4804 151.437 44.2632C151.963 44.0461 152.557 43.9375 153.22 43.9375C153.883 43.9375 154.472 44.0461 154.986 44.2632C155.512 44.4804 155.952 44.7946 156.306 45.2061C156.672 45.6061 156.952 46.0975 157.146 46.6804C157.34 47.2632 157.437 47.9146 157.437 48.6346C157.437 49.3546 157.34 50.0061 157.146 50.5889C156.952 51.1718 156.672 51.6689 156.306 52.0804C155.952 52.4918 155.512 52.8061 154.986 53.0232C154.472 53.2404 153.883 53.3489 153.22 53.3489ZM153.22 51.3432C153.723 51.3432 154.112 51.1889 154.386 50.8804C154.66 50.5718 154.797 50.1318 154.797 49.5604V47.7261C154.797 47.1546 154.66 46.7146 154.386 46.4061C154.112 46.0975 153.723 45.9432 153.22 45.9432C152.717 45.9432 152.329 46.0975 152.054 46.4061C151.78 46.7146 151.643 47.1546 151.643 47.7261V49.5604C151.643 50.1318 151.78 50.5718 152.054 50.8804C152.329 51.1889 152.717 51.3432 153.22 51.3432Z" fill="#13544E"/>
<path d="M140.383 53.1436V51.1378L144.857 46.115H140.537V44.1436H147.806V46.1321L143.314 51.1721H147.926V53.1436H140.383Z" fill="#13544E"/>
</svg>
